<?xml version="1.0" encoding="UTF-8"?>
<svg id="Laag_2" data-name="Laag 2" xmlns="http://www.w3.org/2000/svg" xmlns:xlink="http://www.w3.org/1999/xlink" viewBox="0 0 141.73 229.61">
  <defs>
    <style>
      .cls-1 {
        fill: url(#Naamloos_verloop_6);
      }
    </style>
    <linearGradient id="Naamloos_verloop_6" data-name="Naamloos verloop 6" x1="3.44" y1="231.59" x2="138.29" y2="-1.99" gradientUnits="userSpaceOnUse">
      <stop offset="0" stop-color="#0e657d"/>
      <stop offset=".4" stop-color="#28869c"/>
      <stop offset=".77" stop-color="#3b9fb2"/>
      <stop offset="1" stop-color="#42a8bb"/>
    </linearGradient>
  </defs>
  <path class="cls-1" d="M0,38.97V0h38.13c-1.17.55-2.33,1.13-3.48,1.74C19.06,10.01,7.01,23.05,0,38.97ZM129.2,229.61h12.53v-12.36c-2.21,5.67-6.67,10.18-12.53,12.36ZM133.96,209.11v-.12c0-7.29-5.41-12.97-12.8-12.97s-12.51,5.56-12.51,12.85v.12c0,7.29,5.24,13.14,12.63,13.14s12.68-5.73,12.68-13.02ZM6.06,54.02c-5.25,17.12-3.53,35.26,4.87,51.08,8.39,15.82,22.44,27.43,39.56,32.68,17.12,5.25,35.26,3.52,51.08-4.87,15.82-8.39,27.43-22.44,32.68-39.56,1.99-6.5,2.98-13.14,2.98-19.75,0-8.79-1.75-17.51-5.2-25.75,1.6,8.25,1.17,16.81-1.36,25.07-4.07,13.26-13.06,24.14-25.31,30.63-7.6,4.03-15.9,6.08-24.27,6.08-5.12,0-10.27-.77-15.3-2.31-13.26-4.07-24.14-13.06-30.64-25.3-13.41-25.29-3.75-56.77,21.54-70.19,4.73-2.51,9.72-4.24,14.84-5.19-11.3-.25-22.53,2.37-32.79,7.81C22.92,22.85,11.31,36.9,6.06,54.02ZM74.44,55.57c-3.49,0-6.71-1.1-9.36-2.97,3.34,5.84,8.68,10.12,15.14,12.1,6.73,2.06,13.86,1.38,20.07-1.91,6.22-3.3,10.78-8.82,12.84-15.55,2.07-6.73,1.39-13.86-1.91-20.08-6.81-12.84-22.79-17.74-35.62-10.93-4.25,2.25-7.62,5.52-9.99,9.33,2.55-1.65,5.58-2.62,8.84-2.62,9.01,0,16.31,7.3,16.31,16.31s-7.3,16.31-16.31,16.31ZM39.57,73.33c5.42,10.21,14.49,17.7,25.54,21.1,11.05,3.39,22.76,2.28,32.98-3.14,10.21-5.42,17.7-14.49,21.1-25.54,3.07-10.01,2.43-20.57-1.74-30.06.95,5.12.67,10.43-.9,15.55-2.56,8.36-8.23,15.22-15.95,19.31-4.79,2.54-10.02,3.83-15.29,3.83-3.23,0-6.47-.48-9.64-1.46-8.36-2.57-15.22-8.23-19.31-15.95-8.45-15.94-2.36-35.79,13.58-44.24,2.54-1.35,5.18-2.32,7.86-2.95-6.85,0-13.79,1.6-20.25,5.03-21.08,11.18-29.14,37.43-17.96,58.52ZM107.54,139.19c-37.88,20.1-85.05,5.62-105.15-32.28-.86-1.63-1.65-3.29-2.39-4.96v127.65h10.98v-41.09h7.3l17.62,23.79v-23.79h8.92v41.09h12.62l-10.27-41.09h10.15l5.47,24.08,7.41-24.2h7.53l7.41,24.43,5.53-24.31h10l-10.27,41.09h22.74c-8.41-3.14-13.83-11.13-13.83-20.49v-.12c0-12.09,9.13-21.94,22-21.94,9.75,0,17.34,5.59,20.45,13.55v-97.58c-7.08,15.44-18.93,28.08-34.19,36.17ZM104.06,0c15.25,7.1,27.73,18.89,35.74,34.01.68,1.29,1.32,2.59,1.92,3.9V0h-37.67ZM65.88,229.61h15.98l-8.03-24.21-7.95,24.21ZM19.95,229.61h17.9l-17.9-24.23v24.23Z"/>
</svg>