<svg xmlns="http://www.w3.org/2000/svg" width="1440" height="349" viewBox="0 0 1440 349"><g fill="none" fill-rule="evenodd"><polyline fill="#60574F" points="511.191 130.872 582.357 130.872 508 249.914 508 281 635 281 635 245.13 560.643 245.13 635 126.089 635 95 511.191 95 511.191 130.872"/><path fill="#60574F" d="M924.440585,136 C919.280991,136 914.658436,136.626981 910.567901,137.875947 C906.474857,139.124914 902.738166,140.818512 899.360338,142.959241 C895.98,145.099969 892.913354,147.547943 890.15789,150.313155 C887.399916,153.075868 884.86278,155.975968 882.554012,159.005961 L882.554012,138.655303 L842,138.655303 L842,281 L882.554012,281 L882.554012,201.790553 C882.554012,192.255943 884.820118,185.056901 889.357349,180.20092 C893.892071,175.344939 900.068026,172.91445 907.897761,172.91445 C915.724986,172.91445 921.772955,175.344939 926.041666,180.20092 C930.310377,185.056901 932.445988,192.255943 932.445988,201.790553 L932.445988,281 L973,281 L973,188.848763 C973,172.38239 968.771441,159.460584 960.324362,150.075851 C951.874773,140.693616 939.91435,136 924.440585,136"/><polyline fill="#60574F" points="1109.5 173.653 1065.192 95 1021 95 1021 281 1061.464 281 1061.464 167.132 1108.701 239.019 1109.765 239.019 1157.536 166.335 1157.536 281 1198 281 1198 95 1153.81 95 1109.5 173.653"/><polyline fill="#60574F" points="1399.884 138.008 1376.501 224.983 1349.564 138 1314.436 138 1287.764 224.714 1264.916 138.008 1224 138.008 1267.512 281 1304.312 281 1331.869 194.301 1358.898 281 1395.96 281 1440 138.008 1399.884 138.008"/><path fill="#60574F" d="M773.173232,210.531387 C773.173232,215.835277 772.331593,220.834805 770.648314,225.517497 C768.967533,230.205178 766.535021,234.316567 763.34828,237.849167 C760.161539,241.389252 756.312975,244.173421 751.797593,246.204167 C747.284709,248.239903 742.107504,249.255276 736.265978,249.255276 C730.596776,249.255276 725.511976,248.194997 720.996594,246.071944 C716.48371,243.948891 712.54274,241.077405 709.183676,237.450003 C705.817119,233.830086 703.249745,229.673791 701.481553,224.98611 C699.710864,220.303419 698.829266,215.30389 698.829266,210 L698.829266,209.471108 C698.829266,204.164723 699.66591,199.172679 701.351686,194.484998 C703.029969,189.802306 705.467476,185.690918 708.65172,182.150833 C711.838461,178.615737 715.689522,175.831569 720.202407,173.795833 C724.715291,171.765087 729.892496,170.747219 735.736519,170.747219 C741.218413,170.747219 746.265751,171.807498 750.868544,173.928056 C755.468839,176.051109 759.454762,178.925089 762.818822,182.549997 C766.177886,186.174904 768.747758,190.331198 770.518447,195.016385 C772.286639,199.704066 773.173232,204.69611 773.173232,210 L773.173232,210.531387 Z M791.094903,157.35028 C784.276876,150.721664 776.180157,145.507585 766.79975,141.703054 C757.416846,137.903513 747.239755,136 736.265978,136 C725.114883,136 714.847883,137.948419 705.467476,141.835277 C696.082075,145.727126 687.942899,151.031016 681.037462,157.749444 C674.134522,164.470366 668.732546,172.296474 664.841526,181.222777 C660.94551,190.154069 659,199.748972 659,210 L659,210.531387 C659,220.787405 660.94551,230.382307 664.841526,239.30861 C668.732546,248.239903 674.089567,256.016115 680.905097,262.64972 C687.715632,269.280831 695.814848,274.497404 705.20025,278.296946 C714.580656,282.098982 724.757748,284 735.736519,284 C746.887615,284 757.152117,282.051581 766.535021,278.167217 C775.915427,274.277864 784.057101,268.971479 790.962538,262.250556 C797.865478,255.532129 803.262459,247.708516 807.158474,238.777223 C811.049495,229.85092 813,220.258513 813,210 L813,209.471108 C813,199.217585 811.049495,189.622682 807.158474,180.69139 C803.262459,171.765087 797.905438,163.98139 791.094903,157.35028 L791.094903,157.35028 Z"/><path fill="#00AAEA" d="M283.15172 203.34221C283.15172 241.01755 267.254825 274.958395 241.843293 298.874677L300.626055 349C356.661422 314.223148 394 252.118409 394 181.25563 394 99.9753141 344.88437 30.2013455 274.75954 0L216.744248 89.2724339C256.387739 111.812059 283.15172 154.433351 283.15172 203.34221M15.0269279 105.634625C5.35979595 128.927656 0 154.460884 0 181.25563 0 238.326812 24.2365773 289.706143 62.9301042 325.724489L137.882251 210.393195 15.0269279 105.634625M180.542936 146 138 210.841701 197.386364 261C208.984633 247.487775 216 229.990055 216 210.856684 216 183.694888 201.883652 159.819378 180.542936 146"/></g></svg>