<?xml version="1.0" encoding="UTF-8" standalone="no"?>
<!-- Created with Inkscape (http://www.inkscape.org/) -->

<svg
   version="1.1"
   id="svg1"
   width="204.09467"
   height="204.09467"
   viewBox="0 0 204.09467 204.09467"
   xmlns="http://www.w3.org/2000/svg"
   xmlns:svg="http://www.w3.org/2000/svg">
  <defs
     id="defs1">
    <clipPath
       clipPathUnits="userSpaceOnUse"
       id="clipPath1">
      <path
         d="M 0,153.071 H 153.071 V 0 H 0 Z"
         id="path1" />
    </clipPath>
    <clipPath
       clipPathUnits="userSpaceOnUse"
       id="clipPath3">
      <path
         d="M 0,153.071 H 153.071 V 0 H 0 Z"
         transform="matrix(1.3333333,0,0,-1.3333333,0,204.09467)"
         id="path3" />
    </clipPath>
    <clipPath
       clipPathUnits="userSpaceOnUse"
       id="clipPath8">
      <path
         d="M 0,153.071 H 153.071 V 0 H 0 Z"
         transform="translate(-49.682201,-65.068304)"
         id="path8" />
    </clipPath>
    <clipPath
       clipPathUnits="userSpaceOnUse"
       id="clipPath10">
      <path
         d="M 0,153.071 H 153.071 V 0 H 0 Z"
         transform="translate(-57.814402,-61.228199)"
         id="path10" />
    </clipPath>
    <clipPath
       clipPathUnits="userSpaceOnUse"
       id="clipPath12">
      <path
         d="M 0,153.071 H 153.071 V 0 H 0 Z"
         transform="translate(-67.422002,-65.079299)"
         id="path12" />
    </clipPath>
    <clipPath
       clipPathUnits="userSpaceOnUse"
       id="clipPath14">
      <path
         d="M 0,153.071 H 153.071 V 0 H 0 Z"
         transform="translate(-74.316802,-61.228199)"
         id="path14" />
    </clipPath>
    <clipPath
       clipPathUnits="userSpaceOnUse"
       id="clipPath16">
      <path
         d="M 0,153.071 H 153.071 V 0 H 0 Z"
         transform="translate(-78.146402,-61.228199)"
         id="path16" />
    </clipPath>
    <clipPath
       clipPathUnits="userSpaceOnUse"
       id="clipPath18">
      <path
         d="M 0,153.071 H 153.071 V 0 H 0 Z"
         transform="translate(-89.828702,-61.228199)"
         id="path18" />
    </clipPath>
    <clipPath
       clipPathUnits="userSpaceOnUse"
       id="clipPath20">
      <path
         d="M 0,153.071 H 153.071 V 0 H 0 Z"
         transform="translate(-29.274501,-41.778404)"
         id="path20" />
    </clipPath>
    <clipPath
       clipPathUnits="userSpaceOnUse"
       id="clipPath22">
      <path
         d="M 0,153.071 H 153.071 V 0 H 0 Z"
         transform="translate(-32.425801,-35.716101)"
         id="path22" />
    </clipPath>
    <clipPath
       clipPathUnits="userSpaceOnUse"
       id="clipPath24">
      <path
         d="M 0,153.071 H 153.071 V 0 H 0 Z"
         transform="translate(-44.594201,-35.850801)"
         id="path24" />
    </clipPath>
    <clipPath
       clipPathUnits="userSpaceOnUse"
       id="clipPath26">
      <path
         d="M 0,153.071 H 153.071 V 0 H 0 Z"
         transform="translate(-51.640201,-35.716101)"
         id="path26" />
    </clipPath>
    <clipPath
       clipPathUnits="userSpaceOnUse"
       id="clipPath28">
      <path
         d="M 0,153.071 H 153.071 V 0 H 0 Z"
         transform="translate(-60.130102,-35.716101)"
         id="path28" />
    </clipPath>
    <clipPath
       clipPathUnits="userSpaceOnUse"
       id="clipPath30">
      <path
         d="M 0,153.071 H 153.071 V 0 H 0 Z"
         transform="translate(-69.979601,-39.567103)"
         id="path30" />
    </clipPath>
    <clipPath
       clipPathUnits="userSpaceOnUse"
       id="clipPath32">
      <path
         d="M 0,153.071 H 153.071 V 0 H 0 Z"
         transform="translate(-73.344902,-35.716101)"
         id="path32" />
    </clipPath>
    <clipPath
       clipPathUnits="userSpaceOnUse"
       id="clipPath34">
      <path
         d="M 0,153.071 H 153.071 V 0 H 0 Z"
         transform="translate(-85.0618,-39.567103)"
         id="path34" />
    </clipPath>
    <clipPath
       clipPathUnits="userSpaceOnUse"
       id="clipPath36">
      <path
         d="M 0,153.071 H 153.071 V 0 H 0 Z"
         transform="translate(-93.8767,-35.705398)"
         id="path36" />
    </clipPath>
    <clipPath
       clipPathUnits="userSpaceOnUse"
       id="clipPath38">
      <path
         d="M 0,153.071 H 153.071 V 0 H 0 Z"
         transform="translate(-100.4982,-38.952201)"
         id="path38" />
    </clipPath>
    <clipPath
       clipPathUnits="userSpaceOnUse"
       id="clipPath40">
      <path
         d="M 0,153.071 H 153.071 V 0 H 0 Z"
         transform="translate(-31.591001,-50.095701)"
         id="path40" />
    </clipPath>
    <clipPath
       clipPathUnits="userSpaceOnUse"
       id="clipPath42">
      <path
         d="M 0,153.071 H 153.071 V 0 H 0 Z"
         transform="translate(-38.398201,-48.472101)"
         id="path42" />
    </clipPath>
    <clipPath
       clipPathUnits="userSpaceOnUse"
       id="clipPath44">
      <path
         d="M 0,153.071 H 153.071 V 0 H 0 Z"
         id="path44" />
    </clipPath>
    <clipPath
       clipPathUnits="userSpaceOnUse"
       id="clipPath46">
      <path
         d="M 0,153.071 H 153.071 V 0 H 0 Z"
         transform="translate(-49.748901,-48.472101)"
         id="path46" />
    </clipPath>
    <clipPath
       clipPathUnits="userSpaceOnUse"
       id="clipPath48">
      <path
         d="M 0,153.071 H 153.071 V 0 H 0 Z"
         transform="translate(-53.578501,-48.472101)"
         id="path48" />
    </clipPath>
    <clipPath
       clipPathUnits="userSpaceOnUse"
       id="clipPath50">
      <path
         d="M 0,153.071 H 153.071 V 0 H 0 Z"
         transform="translate(-64.418402,-53.768504)"
         id="path50" />
    </clipPath>
    <clipPath
       clipPathUnits="userSpaceOnUse"
       id="clipPath52">
      <path
         d="M 0,153.071 H 153.071 V 0 H 0 Z"
         transform="translate(-71.816402,-54.124701)"
         id="path52" />
    </clipPath>
    <clipPath
       clipPathUnits="userSpaceOnUse"
       id="clipPath54">
      <path
         d="M 0,153.071 H 153.071 V 0 H 0 Z"
         id="path54" />
    </clipPath>
    <clipPath
       clipPathUnits="userSpaceOnUse"
       id="clipPath56">
      <path
         d="M 0,153.071 H 153.071 V 0 H 0 Z"
         transform="translate(-81.1993,-54.534404)"
         id="path56" />
    </clipPath>
    <clipPath
       clipPathUnits="userSpaceOnUse"
       id="clipPath58">
      <path
         d="M 0,153.071 H 153.071 V 0 H 0 Z"
         transform="translate(-88.5874,-51.708299)"
         id="path58" />
    </clipPath>
    <clipPath
       clipPathUnits="userSpaceOnUse"
       id="clipPath60">
      <path
         d="M 0,153.071 H 153.071 V 0 H 0 Z"
         transform="translate(-101.2234,-52.323201)"
         id="path60" />
    </clipPath>
    <clipPath
       clipPathUnits="userSpaceOnUse"
       id="clipPath62">
      <path
         d="M 0,153.071 H 153.071 V 0 H 0 Z"
         transform="translate(-106.414,-54.534404)"
         id="path62" />
    </clipPath>
    <clipPath
       clipPathUnits="userSpaceOnUse"
       id="clipPath64">
      <path
         d="M 0,153.071 H 153.071 V 0 H 0 Z"
         transform="translate(-43.101201,-113.067)"
         id="path64" />
    </clipPath>
    <clipPath
       clipPathUnits="userSpaceOnUse"
       id="clipPath66">
      <path
         d="M 0,153.071 H 153.071 V 0 H 0 Z"
         transform="translate(-84.026005,-93.792602)"
         id="path66" />
    </clipPath>
    <clipPath
       clipPathUnits="userSpaceOnUse"
       id="clipPath68">
      <path
         d="M 0,153.071 H 153.071 V 0 H 0 Z"
         transform="translate(-90.145405,-81.637902)"
         id="path68" />
    </clipPath>
    <clipPath
       clipPathUnits="userSpaceOnUse"
       id="clipPath70">
      <path
         d="M 0,153.071 H 153.071 V 0 H 0 Z"
         transform="translate(-114.9034,-105.3143)"
         id="path70" />
    </clipPath>
  </defs>
  <g
     id="layer1"
     style="display:inline;fill:#f00000;fill-opacity:1">
    <rect
       style="fill:#742459;fill-opacity:1;stroke:#84d200;stroke-width:4.60364"
       id="rect70"
       width="214.76154"
       height="219.4381"
       x="-4.9671025"
       y="-6.5415788" />
  </g>
  <g
     id="layer-MC0">
    <g
       opacity="0"
       id="g2"
       clip-path="url(#clipPath3)">
      <path
         d="M 153.071,0 H 0 v 153.071 h 153.071 z"
         style="fill:#ffffff;fill-opacity:1;fill-rule:nonzero;stroke:none"
         transform="matrix(1.3333333,0,0,-1.3333333,0,204.09467)"
         clip-path="url(#clipPath1)"
         id="path2" />
    </g>
    <path
       id="path4"
       d="M 0,0 V 7.637 H 5.141 V 6.084 H 1.782 V 4.639 H 4.957 V 3.161 H 1.782 V 1.575 H 5.335 V 0 Z"
       style="fill:#ffffff;fill-opacity:1;fill-rule:nonzero;stroke:none"
       transform="matrix(1.3333333,0,0,-1.3333333,33.690267,122.45707)" />
    <path
       id="path5"
       d="m 32.1,68.865 h 1.858 V 61.228 H 32.1 Z"
       style="fill:#ffffff;fill-opacity:1;fill-rule:nonzero;stroke:none"
       transform="matrix(1.3333333,0,0,-1.3333333,0,204.09467)" />
    <path
       id="path6"
       d="M 0,0 -3.078,4.994 H -3.11 L -3.067,0 H -4.86 v 7.637 h 2.106 L 0.313,2.654 H 0.346 L 0.302,7.637 H 2.095 V 0 Z"
       style="fill:#ffffff;fill-opacity:1;fill-rule:nonzero;stroke:none"
       transform="matrix(1.3333333,0,0,-1.3333333,54.123733,122.45707)" />
    <path
       id="path7"
       d="m 0,0 c 0,0.432 -0.07,0.789 -0.211,1.074 -0.14,0.283 -0.327,0.51 -0.561,0.679 -0.234,0.169 -0.501,0.289 -0.799,0.361 -0.299,0.072 -0.607,0.108 -0.924,0.108 h -0.918 v -4.465 h 0.875 c 0.331,0 0.65,0.037 0.956,0.113 0.306,0.075 0.576,0.199 0.81,0.372 0.234,0.172 0.421,0.402 0.561,0.69 C -0.07,-0.78 0,-0.424 0,0 M 1.922,0 C 1.922,-0.669 1.798,-1.246 1.55,-1.731 1.301,-2.217 0.974,-2.616 0.567,-2.929 0.16,-3.241 -0.299,-3.472 -0.81,-3.619 -1.321,-3.766 -1.84,-3.84 -2.365,-3.84 h -2.851 v 7.637 h 2.764 c 0.54,0 1.073,-0.063 1.599,-0.189 C -0.328,3.482 0.14,3.274 0.551,2.983 0.961,2.691 1.292,2.301 1.544,1.812 1.796,1.323 1.922,0.719 1.922,0"
       style="fill:#ffffff;fill-opacity:1;fill-rule:nonzero;stroke:none"
       transform="matrix(1.3333333,0,0,-1.3333333,66.242933,117.33693)"
       clip-path="url(#clipPath8)" />
    <path
       id="path9"
       d="M 0,0 V 3.193 H -2.981 V 0 h -1.847 v 7.637 h 1.847 V 4.746 H 0 V 7.637 H 1.847 V 0 Z"
       style="fill:#ffffff;fill-opacity:1;fill-rule:nonzero;stroke:none"
       transform="matrix(1.3333333,0,0,-1.3333333,77.085867,122.45707)"
       clip-path="url(#clipPath10)" />
    <path
       id="path11"
       d="M 0,0 C 0,0.331 -0.054,0.64 -0.162,0.928 -0.27,1.215 -0.42,1.462 -0.61,1.666 -0.801,1.871 -1.031,2.033 -1.301,2.152 -1.571,2.271 -1.868,2.33 -2.192,2.33 -2.516,2.33 -2.812,2.271 -3.078,2.152 -3.345,2.033 -3.575,1.871 -3.769,1.666 -3.964,1.462 -4.113,1.215 -4.217,0.928 -4.322,0.64 -4.374,0.331 -4.374,0 c 0,-0.345 0.054,-0.663 0.162,-0.955 0.108,-0.291 0.257,-0.541 0.448,-0.749 0.191,-0.209 0.419,-0.373 0.686,-0.491 0.266,-0.119 0.562,-0.178 0.886,-0.178 0.324,0 0.619,0.059 0.885,0.178 0.267,0.118 0.497,0.282 0.691,0.491 0.195,0.208 0.346,0.458 0.454,0.749 C -0.054,-0.663 0,-0.345 0,0 m 1.976,0 c 0,-0.604 -0.104,-1.156 -0.313,-1.656 -0.209,-0.5 -0.498,-0.928 -0.869,-1.284 -0.371,-0.356 -0.812,-0.631 -1.323,-0.825 -0.511,-0.194 -1.066,-0.291 -1.663,-0.291 -0.598,0 -1.151,0.097 -1.658,0.291 -0.508,0.194 -0.947,0.469 -1.318,0.825 -0.371,0.356 -0.661,0.784 -0.869,1.284 -0.209,0.5 -0.313,1.052 -0.313,1.656 0,0.611 0.104,1.163 0.313,1.656 0.208,0.492 0.498,0.911 0.869,1.257 0.371,0.345 0.81,0.611 1.318,0.798 0.507,0.187 1.06,0.28 1.658,0.28 0.597,0 1.152,-0.093 1.663,-0.28 C -0.018,3.524 0.423,3.258 0.794,2.913 1.165,2.567 1.454,2.148 1.663,1.656 1.872,1.163 1.976,0.611 1.976,0"
       style="fill:#ffffff;fill-opacity:1;fill-rule:nonzero;stroke:none"
       transform="matrix(1.3333333,0,0,-1.3333333,89.896,117.32227)"
       clip-path="url(#clipPath12)" />
    <path
       id="path13"
       d="m 0,0 h -1.847 l -2.894,7.637 h 2.073 l 1.772,-5.415 h 0.043 l 1.76,5.415 h 2.041 z"
       style="fill:#ffffff;fill-opacity:1;fill-rule:nonzero;stroke:none"
       transform="matrix(1.3333333,0,0,-1.3333333,99.089067,122.45707)"
       clip-path="url(#clipPath14)" />
    <path
       id="path15"
       d="M 0,0 V 7.637 H 5.141 V 6.084 H 1.782 V 4.639 H 4.957 V 3.161 H 1.782 V 1.575 H 5.335 V 0 Z"
       style="fill:#ffffff;fill-opacity:1;fill-rule:nonzero;stroke:none"
       transform="matrix(1.3333333,0,0,-1.3333333,104.1952,122.45707)"
       clip-path="url(#clipPath16)" />
    <path
       id="path17"
       d="M 0,0 -3.078,4.994 H -3.11 L -3.067,0 H -4.86 v 7.637 h 2.106 L 0.313,2.654 H 0.346 L 0.302,7.637 H 2.095 V 0 Z"
       style="fill:#ffffff;fill-opacity:1;fill-rule:nonzero;stroke:none"
       transform="matrix(1.3333333,0,0,-1.3333333,119.7716,122.45707)"
       clip-path="url(#clipPath18)" />
    <path
       id="path19"
       d="M 0,0 V -6.062 H -1.847 V 0 h -2.16 V 1.575 H 2.16 V 0 Z"
       style="fill:#ffffff;fill-opacity:1;fill-rule:nonzero;stroke:none"
       transform="matrix(1.3333333,0,0,-1.3333333,39.032667,148.39013)"
       clip-path="url(#clipPath20)" />
    <path
       id="path21"
       d="M 0,0 V 7.637 H 5.141 V 6.084 H 1.782 V 4.639 H 4.957 V 3.161 H 1.782 V 1.575 H 5.335 V 0 Z"
       style="fill:#ffffff;fill-opacity:1;fill-rule:nonzero;stroke:none"
       transform="matrix(1.3333333,0,0,-1.3333333,43.2344,156.4732)"
       clip-path="url(#clipPath22)" />
    <path
       id="path23"
       d="m 0,0 c -0.497,-0.226 -1.069,-0.34 -1.717,-0.34 -0.591,0 -1.136,0.098 -1.636,0.291 -0.501,0.195 -0.935,0.47 -1.302,0.826 -0.367,0.356 -0.655,0.782 -0.864,1.278 -0.209,0.496 -0.313,1.043 -0.313,1.64 0,0.611 0.106,1.165 0.319,1.661 0.212,0.496 0.505,0.919 0.88,1.267 0.374,0.349 0.813,0.617 1.317,0.804 0.504,0.187 1.048,0.28 1.631,0.28 0.54,0 1.071,-0.095 1.593,-0.285 C 0.43,7.231 0.853,6.953 1.177,6.586 L -0.076,5.334 c -0.172,0.238 -0.399,0.414 -0.68,0.529 -0.281,0.115 -0.569,0.173 -0.864,0.173 -0.324,0 -0.621,-0.06 -0.891,-0.179 C -2.781,5.739 -3.013,5.575 -3.208,5.367 -3.402,5.158 -3.553,4.912 -3.661,4.628 -3.769,4.344 -3.823,4.033 -3.823,3.695 c 0,-0.345 0.054,-0.662 0.162,-0.949 0.108,-0.288 0.257,-0.534 0.448,-0.739 0.191,-0.206 0.419,-0.366 0.686,-0.481 0.266,-0.115 0.558,-0.172 0.875,-0.172 0.367,0 0.687,0.072 0.961,0.216 0.273,0.144 0.493,0.33 0.659,0.561 L 1.253,0.923 C 0.914,0.534 0.497,0.227 0,0"
       style="fill:#ffffff;fill-opacity:1;fill-rule:nonzero;stroke:none"
       transform="matrix(1.3333333,0,0,-1.3333333,59.458933,156.2936)"
       clip-path="url(#clipPath24)" />
    <path
       id="path25"
       d="M 0,0 V 3.193 H -2.981 V 0 h -1.847 v 7.637 h 1.847 V 4.746 H 0 V 7.637 H 1.847 V 0 Z"
       style="fill:#ffffff;fill-opacity:1;fill-rule:nonzero;stroke:none"
       transform="matrix(1.3333333,0,0,-1.3333333,68.8536,156.4732)"
       clip-path="url(#clipPath26)" />
    <path
       id="path27"
       d="M 0,0 -3.078,4.994 H -3.11 L -3.067,0 H -4.86 v 7.637 h 2.106 L 0.313,2.654 H 0.346 L 0.302,7.637 H 2.095 V 0 Z"
       style="fill:#ffffff;fill-opacity:1;fill-rule:nonzero;stroke:none"
       transform="matrix(1.3333333,0,0,-1.3333333,80.173467,156.4732)"
       clip-path="url(#clipPath28)" />
    <path
       id="path29"
       d="M 0,0 C 0,0.331 -0.054,0.64 -0.162,0.928 -0.27,1.215 -0.419,1.462 -0.61,1.666 -0.801,1.871 -1.031,2.033 -1.301,2.152 -1.571,2.271 -1.868,2.33 -2.192,2.33 -2.516,2.33 -2.812,2.271 -3.078,2.152 -3.345,2.033 -3.575,1.871 -3.769,1.666 -3.964,1.462 -4.113,1.215 -4.217,0.928 -4.322,0.64 -4.374,0.331 -4.374,0 c 0,-0.345 0.054,-0.663 0.162,-0.955 0.108,-0.291 0.257,-0.541 0.448,-0.749 0.191,-0.209 0.419,-0.373 0.686,-0.491 0.266,-0.119 0.562,-0.178 0.886,-0.178 0.324,0 0.619,0.059 0.885,0.178 0.267,0.118 0.497,0.282 0.691,0.491 0.195,0.208 0.346,0.458 0.454,0.749 C -0.054,-0.663 0,-0.345 0,0 m 1.976,0 c 0,-0.604 -0.104,-1.156 -0.313,-1.656 -0.209,-0.5 -0.498,-0.928 -0.869,-1.284 -0.371,-0.356 -0.812,-0.631 -1.323,-0.825 -0.511,-0.194 -1.066,-0.291 -1.663,-0.291 -0.598,0 -1.151,0.097 -1.658,0.291 -0.508,0.194 -0.947,0.469 -1.318,0.825 -0.371,0.356 -0.661,0.784 -0.869,1.284 -0.209,0.5 -0.313,1.052 -0.313,1.656 0,0.611 0.104,1.163 0.313,1.656 0.208,0.492 0.498,0.911 0.869,1.257 0.371,0.345 0.81,0.611 1.318,0.798 0.507,0.187 1.06,0.28 1.658,0.28 0.597,0 1.152,-0.093 1.663,-0.28 C -0.018,3.524 0.423,3.258 0.794,2.913 1.165,2.567 1.454,2.148 1.663,1.656 1.872,1.163 1.976,0.611 1.976,0"
       style="fill:#ffffff;fill-opacity:1;fill-rule:nonzero;stroke:none"
       transform="matrix(1.3333333,0,0,-1.3333333,93.306133,151.33853)"
       clip-path="url(#clipPath30)" />
    <path
       id="path31"
       d="M 0,0 V 7.637 H 1.858 V 1.607 H 4.817 V 0 Z"
       style="fill:#ffffff;fill-opacity:1;fill-rule:nonzero;stroke:none"
       transform="matrix(1.3333333,0,0,-1.3333333,97.7932,156.4732)"
       clip-path="url(#clipPath32)" />
    <path
       id="path33"
       d="M 0,0 C 0,0.331 -0.054,0.64 -0.162,0.928 -0.27,1.215 -0.42,1.462 -0.61,1.666 -0.801,1.871 -1.031,2.033 -1.301,2.152 -1.571,2.271 -1.868,2.33 -2.192,2.33 -2.516,2.33 -2.812,2.271 -3.078,2.152 -3.345,2.033 -3.575,1.871 -3.769,1.666 -3.964,1.462 -4.113,1.215 -4.217,0.928 -4.322,0.64 -4.374,0.331 -4.374,0 c 0,-0.345 0.054,-0.663 0.162,-0.955 0.108,-0.291 0.257,-0.541 0.448,-0.749 0.191,-0.209 0.419,-0.373 0.686,-0.491 0.266,-0.119 0.562,-0.178 0.886,-0.178 0.324,0 0.619,0.059 0.885,0.178 0.267,0.118 0.497,0.282 0.691,0.491 0.195,0.208 0.346,0.458 0.454,0.749 C -0.054,-0.663 0,-0.345 0,0 m 1.976,0 c 0,-0.604 -0.104,-1.156 -0.313,-1.656 -0.209,-0.5 -0.498,-0.928 -0.869,-1.284 -0.371,-0.356 -0.812,-0.631 -1.323,-0.825 -0.511,-0.194 -1.066,-0.291 -1.663,-0.291 -0.598,0 -1.151,0.097 -1.658,0.291 -0.508,0.194 -0.947,0.469 -1.318,0.825 -0.371,0.356 -0.661,0.784 -0.869,1.284 -0.209,0.5 -0.314,1.052 -0.314,1.656 0,0.611 0.105,1.163 0.314,1.656 0.208,0.492 0.498,0.911 0.869,1.257 0.371,0.345 0.81,0.611 1.318,0.798 0.507,0.187 1.06,0.28 1.658,0.28 0.597,0 1.152,-0.093 1.663,-0.28 C -0.018,3.524 0.423,3.258 0.794,2.913 1.165,2.567 1.454,2.148 1.663,1.656 1.872,1.163 1.976,0.611 1.976,0"
       style="fill:#ffffff;fill-opacity:1;fill-rule:nonzero;stroke:none"
       transform="matrix(1.3333333,0,0,-1.3333333,113.41573,151.33853)"
       clip-path="url(#clipPath34)" />
    <path
       id="path35"
       d="m 0,0 c -0.5,-0.122 -1.046,-0.184 -1.636,-0.184 -0.612,0 -1.176,0.098 -1.69,0.292 -0.515,0.194 -0.958,0.467 -1.329,0.82 -0.371,0.352 -0.661,0.774 -0.869,1.267 -0.209,0.493 -0.313,1.041 -0.313,1.645 0,0.611 0.106,1.165 0.318,1.661 0.213,0.496 0.506,0.919 0.88,1.268 0.375,0.348 0.814,0.616 1.318,0.803 0.504,0.187 1.048,0.281 1.631,0.281 0.605,0 1.166,-0.092 1.685,-0.275 C 0.513,7.395 0.934,7.148 1.258,6.839 L 0.092,5.512 c -0.18,0.209 -0.418,0.379 -0.713,0.512 -0.295,0.133 -0.63,0.2 -1.004,0.2 -0.324,0 -0.623,-0.059 -0.897,-0.178 C -2.795,5.927 -3.033,5.762 -3.235,5.55 -3.436,5.338 -3.593,5.086 -3.704,4.795 -3.816,4.504 -3.872,4.185 -3.872,3.84 c 0,-0.352 0.051,-0.676 0.151,-0.971 0.101,-0.295 0.251,-0.548 0.449,-0.76 0.198,-0.212 0.442,-0.378 0.734,-0.496 0.292,-0.119 0.625,-0.178 0.999,-0.178 0.216,0 0.421,0.016 0.616,0.048 0.194,0.032 0.374,0.085 0.54,0.157 V 3.031 H -1.841 V 4.52 H 1.312 V 0.475 C 0.938,0.28 0.5,0.122 0,0"
       style="fill:#ffffff;fill-opacity:1;fill-rule:nonzero;stroke:none"
       transform="matrix(1.3333333,0,0,-1.3333333,125.16893,156.48747)"
       clip-path="url(#clipPath36)" />
    <path
       id="path37"
       d="M 0,0 V -3.236 H -1.847 V 0 L -4.72,4.401 h 2.236 l 1.631,-2.826 1.631,2.826 h 2.16 z"
       style="fill:#ffffff;fill-opacity:1;fill-rule:nonzero;stroke:none"
       transform="matrix(1.3333333,0,0,-1.3333333,133.9976,152.1584)"
       clip-path="url(#clipPath38)" />
    <path
       id="path39"
       d="m 0,0 c -0.155,-0.378 -0.376,-0.701 -0.664,-0.971 -0.288,-0.27 -0.636,-0.48 -1.042,-0.631 -0.407,-0.151 -0.859,-0.226 -1.356,-0.226 -0.504,0 -0.958,0.075 -1.361,0.226 -0.403,0.151 -0.745,0.361 -1.026,0.631 -0.281,0.27 -0.496,0.593 -0.648,0.971 -0.151,0.377 -0.227,0.796 -0.227,1.257 v 4.757 h 1.837 V 1.408 c 0,-0.209 0.027,-0.407 0.081,-0.594 0.054,-0.187 0.136,-0.354 0.248,-0.501 0.111,-0.148 0.259,-0.264 0.443,-0.351 0.183,-0.086 0.405,-0.129 0.664,-0.129 0.259,0 0.481,0.043 0.664,0.129 0.184,0.087 0.333,0.203 0.448,0.351 0.115,0.147 0.198,0.314 0.249,0.501 0.05,0.187 0.075,0.385 0.075,0.594 V 6.014 H 0.232 V 1.257 C 0.232,0.796 0.155,0.377 0,0"
       style="fill:#ffffff;fill-opacity:1;fill-rule:nonzero;stroke:none"
       transform="matrix(1.3333333,0,0,-1.3333333,42.121333,137.3004)"
       clip-path="url(#clipPath40)" />
    <path
       id="path41"
       d="M 0,0 -3.078,4.994 H -3.11 L -3.067,0 H -4.86 v 7.637 h 2.106 L 0.313,2.654 H 0.346 L 0.302,7.637 H 2.095 V 0 Z"
       style="fill:#ffffff;fill-opacity:1;fill-rule:nonzero;stroke:none"
       transform="matrix(1.3333333,0,0,-1.3333333,51.1976,139.4652)"
       clip-path="url(#clipPath42)" />
    <path
       id="path43"
       d="m 42.269,56.109 h 1.858 v -7.637 h -1.858 z"
       style="fill:#ffffff;fill-opacity:1;fill-rule:nonzero;stroke:none"
       transform="matrix(1.3333333,0,0,-1.3333333,0,204.09467)"
       clip-path="url(#clipPath44)" />
    <path
       id="path45"
       d="m 0,0 h -1.847 l -2.894,7.637 h 2.073 l 1.772,-5.415 h 0.043 l 1.76,5.415 h 2.041 z"
       style="fill:#ffffff;fill-opacity:1;fill-rule:nonzero;stroke:none"
       transform="matrix(1.3333333,0,0,-1.3333333,66.331867,139.4652)"
       clip-path="url(#clipPath46)" />
    <path
       id="path47"
       d="M 0,0 V 7.637 H 5.141 V 6.084 H 1.782 V 4.639 H 4.957 V 3.161 H 1.782 V 1.575 H 5.335 V 0 Z"
       style="fill:#ffffff;fill-opacity:1;fill-rule:nonzero;stroke:none"
       transform="matrix(1.3333333,0,0,-1.3333333,71.438,139.4652)"
       clip-path="url(#clipPath48)" />
    <path
       id="path49"
       d="M 0,0 C 0,0.18 -0.038,0.325 -0.114,0.437 -0.19,0.548 -0.288,0.635 -0.407,0.696 -0.527,0.757 -0.66,0.798 -0.809,0.82 -0.957,0.841 -1.1,0.852 -1.237,0.852 h -0.988 v -1.78 h 0.879 c 0.152,0 0.308,0.013 0.467,0.038 0.159,0.025 0.304,0.07 0.434,0.135 0.13,0.065 0.237,0.158 0.32,0.28 C -0.042,-0.352 0,-0.194 0,0 m 0.076,-5.296 -1.66,3.031 h -0.63 v -3.031 h -1.804 v 7.637 h 2.916 c 0.368,0 0.726,-0.038 1.075,-0.113 C 0.322,2.152 0.635,2.024 0.913,1.845 1.19,1.665 1.411,1.428 1.577,1.133 1.742,0.838 1.825,0.471 1.825,0.033 1.825,-0.485 1.685,-0.92 1.404,-1.273 1.123,-1.625 0.735,-1.877 0.238,-2.028 l 1.998,-3.268 z"
       style="fill:#ffffff;fill-opacity:1;fill-rule:nonzero;stroke:none"
       transform="matrix(1.3333333,0,0,-1.3333333,85.8912,132.40333)"
       clip-path="url(#clipPath50)" />
    <path
       id="path51"
       d="m 0,0 c -0.158,0.201 -0.365,0.361 -0.621,0.48 -0.256,0.119 -0.502,0.178 -0.74,0.178 -0.122,0 -0.246,-0.011 -0.372,-0.032 C -1.859,0.604 -1.973,0.562 -2.074,0.502 -2.175,0.44 -2.259,0.361 -2.327,0.264 -2.396,0.167 -2.43,0.043 -2.43,-0.108 c 0,-0.129 0.027,-0.237 0.081,-0.324 0.054,-0.086 0.133,-0.161 0.238,-0.226 0.104,-0.065 0.228,-0.124 0.372,-0.178 0.144,-0.054 0.306,-0.11 0.486,-0.167 0.259,-0.086 0.529,-0.182 0.81,-0.286 0.281,-0.105 0.537,-0.243 0.767,-0.415 0.23,-0.173 0.421,-0.387 0.572,-0.642 0.152,-0.256 0.227,-0.574 0.227,-0.955 0,-0.439 -0.081,-0.818 -0.243,-1.138 -0.162,-0.32 -0.38,-0.584 -0.653,-0.793 -0.274,-0.209 -0.587,-0.363 -0.94,-0.464 -0.353,-0.1 -0.716,-0.151 -1.091,-0.151 -0.547,0 -1.076,0.096 -1.587,0.286 -0.512,0.191 -0.936,0.462 -1.275,0.815 l 1.21,1.229 c 0.187,-0.23 0.434,-0.422 0.74,-0.577 0.306,-0.155 0.61,-0.232 0.912,-0.232 0.137,0 0.27,0.015 0.4,0.043 0.13,0.029 0.243,0.076 0.34,0.141 0.097,0.064 0.175,0.151 0.232,0.259 0.058,0.107 0.087,0.237 0.087,0.388 0,0.144 -0.036,0.266 -0.108,0.367 -0.072,0.1 -0.175,0.192 -0.308,0.275 -0.133,0.082 -0.299,0.158 -0.497,0.226 -0.198,0.069 -0.423,0.142 -0.675,0.221 -0.245,0.079 -0.484,0.173 -0.718,0.281 -0.234,0.108 -0.443,0.246 -0.626,0.415 -0.184,0.169 -0.332,0.374 -0.443,0.615 -0.112,0.241 -0.168,0.534 -0.168,0.879 0,0.424 0.087,0.788 0.26,1.09 0.172,0.302 0.399,0.55 0.68,0.744 0.281,0.194 0.598,0.336 0.95,0.426 0.353,0.09 0.709,0.135 1.07,0.135 0.432,0 0.873,-0.079 1.323,-0.237 C 0.445,1.783 0.839,1.55 1.177,1.24 Z"
       style="fill:#ffffff;fill-opacity:1;fill-rule:nonzero;stroke:none"
       transform="matrix(1.3333333,0,0,-1.3333333,95.7552,131.9284)"
       clip-path="url(#clipPath52)" />
    <path
       id="path53"
       d="m 74.35,56.109 h 1.858 V 48.472 H 74.35 Z"
       style="fill:#ffffff;fill-opacity:1;fill-rule:nonzero;stroke:none"
       transform="matrix(1.3333333,0,0,-1.3333333,0,204.09467)"
       clip-path="url(#clipPath54)" />
    <path
       id="path55"
       d="M 0,0 V -6.062 H -1.847 V 0 h -2.16 V 1.575 H 2.16 V 0 Z"
       style="fill:#ffffff;fill-opacity:1;fill-rule:nonzero;stroke:none"
       transform="matrix(1.3333333,0,0,-1.3333333,108.26573,131.38213)"
       clip-path="url(#clipPath56)" />
    <path
       id="path57"
       d="M 0,0 V -3.236 H -1.847 V 0 L -4.72,4.401 h 2.236 l 1.631,-2.826 1.631,2.826 h 2.16 z"
       style="fill:#ffffff;fill-opacity:1;fill-rule:nonzero;stroke:none"
       transform="matrix(1.3333333,0,0,-1.3333333,118.11653,135.15027)"
       clip-path="url(#clipPath58)" />
    <path
       id="path59"
       d="M 0,0 C 0,0.331 -0.054,0.64 -0.162,0.928 -0.27,1.215 -0.42,1.462 -0.61,1.666 -0.801,1.871 -1.031,2.033 -1.301,2.152 -1.571,2.271 -1.868,2.33 -2.192,2.33 -2.516,2.33 -2.812,2.271 -3.078,2.152 -3.345,2.033 -3.575,1.871 -3.769,1.666 -3.964,1.462 -4.113,1.215 -4.217,0.928 -4.322,0.64 -4.374,0.331 -4.374,0 c 0,-0.345 0.054,-0.663 0.162,-0.955 0.108,-0.291 0.257,-0.541 0.448,-0.749 0.191,-0.209 0.419,-0.373 0.686,-0.491 0.266,-0.119 0.562,-0.178 0.886,-0.178 0.324,0 0.619,0.059 0.885,0.178 0.267,0.118 0.497,0.282 0.691,0.491 0.195,0.208 0.346,0.458 0.454,0.749 C -0.054,-0.663 0,-0.345 0,0 m 1.976,0 c 0,-0.604 -0.104,-1.156 -0.313,-1.656 -0.209,-0.5 -0.498,-0.928 -0.869,-1.284 -0.371,-0.356 -0.812,-0.631 -1.323,-0.825 -0.511,-0.194 -1.066,-0.291 -1.663,-0.291 -0.598,0 -1.151,0.097 -1.658,0.291 -0.508,0.194 -0.947,0.469 -1.318,0.825 -0.371,0.356 -0.661,0.784 -0.869,1.284 -0.209,0.5 -0.314,1.052 -0.314,1.656 0,0.611 0.105,1.163 0.314,1.656 0.208,0.492 0.498,0.911 0.869,1.257 0.371,0.345 0.81,0.611 1.318,0.798 0.507,0.187 1.06,0.28 1.658,0.28 0.597,0 1.152,-0.093 1.663,-0.28 C -0.018,3.524 0.423,3.258 0.794,2.913 1.165,2.567 1.454,2.148 1.663,1.656 1.872,1.163 1.976,0.611 1.976,0"
       style="fill:#ffffff;fill-opacity:1;fill-rule:nonzero;stroke:none"
       transform="matrix(1.3333333,0,0,-1.3333333,134.96453,134.3304)"
       clip-path="url(#clipPath60)" />
    <path
       id="path61"
       d="M 0,0 V -1.575 H 2.959 V -3.096 H 0 V -6.062 H -1.825 V 1.575 H 3.208 V 0 Z"
       style="fill:#ffffff;fill-opacity:1;fill-rule:nonzero;stroke:none"
       transform="matrix(1.3333333,0,0,-1.3333333,141.88533,131.38213)"
       clip-path="url(#clipPath62)" />
    <path
       id="path63"
       d="M 0,0 V -26.324 H -8.22 V 0 h -9.613 V 6.839 H 9.613 V 0 Z"
       style="fill:#ffffff;fill-opacity:1;fill-rule:nonzero;stroke:none"
       transform="matrix(1.3333333,0,0,-1.3333333,57.468267,53.338667)"
       clip-path="url(#clipPath64)" />
    <path
       id="path65"
       d="m 0,0 c -0.689,-1.639 -1.675,-3.044 -2.956,-4.215 -1.282,-1.171 -2.829,-2.085 -4.639,-2.741 -1.811,-0.655 -3.821,-0.983 -6.032,-0.983 -2.244,0 -4.262,0.328 -6.057,0.983 -1.795,0.656 -3.316,1.57 -4.566,2.741 -1.25,1.171 -2.211,2.576 -2.884,4.215 -0.673,1.64 -1.01,3.458 -1.01,5.457 v 20.656 h 8.172 v -20 c 0,-0.906 0.12,-1.765 0.361,-2.576 0.24,-0.813 0.608,-1.539 1.105,-2.179 0.496,-0.64 1.154,-1.147 1.971,-1.522 0.817,-0.375 1.802,-0.562 2.956,-0.562 1.154,0 2.139,0.187 2.956,0.562 0.817,0.375 1.482,0.882 1.995,1.522 0.512,0.64 0.881,1.366 1.105,2.179 0.224,0.811 0.337,1.67 0.337,2.576 v 20 H 1.033 V 5.457 C 1.033,3.458 0.689,1.64 0,0"
       style="fill:#ffffff;fill-opacity:1;fill-rule:nonzero;stroke:none"
       transform="matrix(1.3333333,0,0,-1.3333333,112.03467,79.037867)"
       clip-path="url(#clipPath66)" />
    <path
       id="path67"
       d="M 0,0 16.665,40.819 H 10.712 L -5.952,0 Z"
       style="fill:#ffffff;fill-opacity:1;fill-rule:nonzero;stroke:none"
       transform="matrix(1.3333333,0,0,-1.3333333,120.19387,95.244133)"
       clip-path="url(#clipPath68)" />
    <path
       id="path69"
       d="M 0,0 C 2.943,0 5.464,-1.806 6.516,-4.37 H -6.516 C -5.464,-1.806 -2.943,0 0,0 m 0,5.373 c -6.857,0 -12.415,-5.559 -12.415,-12.415 0,-6.857 5.558,-12.416 12.415,-12.416 4.4,0 8.896,1.926 11.323,5.395 l -5.631,2.296 C 4.193,-13.429 2.139,-14.085 0,-14.085 c -3.156,0 -5.827,2.076 -6.722,4.937 h 18.956 c 0.117,0.685 0.181,1.388 0.181,2.106 C 12.415,-0.186 6.857,5.373 0,5.373"
       style="fill:#ffffff;fill-opacity:1;fill-rule:nonzero;stroke:none"
       transform="matrix(1.3333333,0,0,-1.3333333,153.20453,63.6756)"
       clip-path="url(#clipPath70)" />
  </g>
</svg>
