<?xml version="1.0" encoding="UTF-8"?>
<svg id="Layer_2" data-name="Layer 2" xmlns="http://www.w3.org/2000/svg" xmlns:xlink="http://www.w3.org/1999/xlink" viewBox="0 0 185.57 185.56">
  <defs>
    <style>
      .cls-1 {
        fill: #231f20;
      }

      .cls-2 {
        fill: url(#linear-gradient);
      }

      .cls-3 {
        fill: #f26522;
      }
    </style>
    <linearGradient id="linear-gradient" x1="101.41" y1="93.33" x2="185.57" y2="93.33" gradientUnits="userSpaceOnUse">
      <stop offset="0" stop-color="#f26522"/>
      <stop offset="1" stop-color="#fff"/>
    </linearGradient>
  </defs>
  <g id="Layer_1-2" data-name="Layer 1">
    <path class="cls-2" d="M112.7,70.16c1.86-2.19,1.58-5.47-.61-7.32-2.19-1.85-5.47-1.58-7.32.61-1.85,2.19-1.59,5.47.61,7.32,2.19,1.86,5.47,1.58,7.32-.61M120.35,80.72c2.61-1.19,3.75-4.28,2.55-6.89-1.2-2.61-4.28-3.76-6.88-2.56-2.61,1.2-3.75,4.28-2.56,6.89,1.2,2.61,4.28,3.76,6.89,2.56ZM122.9,83.16c-2.87-.03-5.22,2.27-5.25,5.14-.03,2.87,2.27,5.22,5.14,5.25,2.87.03,5.22-2.27,5.25-5.14.03-2.87-2.27-5.22-5.14-5.25ZM119.67,105.93c2.6,1.22,5.69.11,6.91-2.49,1.22-2.6.11-5.7-2.49-6.91-2.6-1.22-5.69-.11-6.91,2.49-1.22,2.59-.1,5.69,2.49,6.91ZM119.75,115.65c2.14-1.92,2.3-5.21.38-7.33-1.92-2.13-5.21-2.3-7.34-.39-2.13,1.92-2.3,5.21-.38,7.34,1.92,2.13,5.21,2.3,7.33.38ZM104.76,114.75c-2.73.88-4.23,3.81-3.35,6.54.88,2.73,3.81,4.23,6.53,3.35,2.74-.88,4.24-3.81,3.36-6.54-.88-2.74-3.81-4.23-6.54-3.36ZM122.5,130.16c1.93-1.53,2.26-4.33.73-6.26-1.53-1.93-4.33-2.26-6.26-.73-1.93,1.52-2.26,4.33-.73,6.26,1.53,1.93,4.34,2.26,6.26.73ZM140.52,93.71c.06-2.46-1.9-4.5-4.35-4.56-2.46-.06-4.5,1.9-4.56,4.36-.05,2.46,1.89,4.5,4.36,4.56,2.46.06,4.5-1.9,4.55-4.35ZM132.62,110.29c2.34.76,4.86-.52,5.62-2.86.76-2.34-.52-4.86-2.86-5.62-2.34-.76-4.86.52-5.62,2.86-.76,2.34.51,4.86,2.86,5.62ZM132.81,118.83c1.35-2.06.78-4.82-1.28-6.17-2.06-1.35-4.83-.77-6.17,1.28-1.35,2.06-.77,4.83,1.28,6.17,2.06,1.35,4.83.77,6.17-1.29ZM135.02,83.88c2.34-.76,3.63-3.27,2.88-5.61-.76-2.34-3.27-3.63-5.62-2.87-2.35.76-3.63,3.27-2.87,5.61.75,2.34,3.26,3.63,5.6,2.87ZM130.15,63.72c-1.51-1.95-4.3-2.3-6.25-.79-1.95,1.51-2.3,4.3-.79,6.25,1.51,1.95,4.31,2.3,6.26.79,1.95-1.5,2.29-4.3.79-6.25ZM113.97,60.72c2.04,1.37,4.81.82,6.19-1.23,1.37-2.05.82-4.81-1.23-6.19-2.05-1.37-4.81-.82-6.19,1.23-1.37,2.04-.82,4.81,1.23,6.18ZM121.19,50.88c1.78,1.2,4.19.73,5.39-1.05,1.2-1.78.73-4.19-1.05-5.39-1.78-1.2-4.2-.73-5.39,1.05-1.2,1.78-.73,4.19,1.05,5.39ZM134.09,57c1.52-1.52,1.51-3.98-.01-5.49-1.52-1.51-3.98-1.51-5.49.01-1.51,1.52-1.51,3.98.01,5.49,1.52,1.51,3.98,1.51,5.49-.01ZM135.03,64.75c1.17,1.8,3.57,2.31,5.37,1.14,1.8-1.17,2.31-3.57,1.15-5.37-1.17-1.8-3.58-2.31-5.37-1.14-1.8,1.17-2.31,3.58-1.14,5.38ZM141.36,67.79c-1.97.85-2.88,3.13-2.03,5.1.85,1.97,3.13,2.88,5.1,2.03,1.96-.85,2.88-3.13,2.03-5.1-.85-1.97-3.13-2.88-5.11-2.03ZM142.13,82.63c.49,2.09,2.57,3.39,4.66,2.91,2.08-.49,3.38-2.57,2.9-4.66-.48-2.09-2.56-3.39-4.65-2.9-2.09.48-3.4,2.57-2.91,4.66ZM151.18,93.38c.01-2.15-1.71-3.9-3.86-3.91-2.14-.02-3.89,1.71-3.91,3.85-.02,2.15,1.71,3.9,3.85,3.92,2.15.02,3.9-1.71,3.92-3.85ZM149.93,104.8c.43-2.1-.91-4.15-3.02-4.59-2.1-.44-4.16.91-4.59,3.01-.44,2.1.91,4.16,3.01,4.59,2.1.44,4.15-.91,4.59-3.01ZM141.64,117.31c1.98.82,4.25-.12,5.07-2.11.81-1.98-.13-4.25-2.11-5.07-1.99-.82-4.25.13-5.07,2.11-.82,1.99.13,4.26,2.11,5.07ZM140.89,125.9c1.22-1.77.76-4.19-1.01-5.4-1.77-1.21-4.19-.76-5.4,1.01-1.21,1.77-.76,4.19,1,5.4,1.78,1.21,4.19.76,5.4-1.01ZM133.75,134.4c1.53-1.51,1.54-3.96.03-5.49-1.51-1.52-3.97-1.54-5.49-.03-1.53,1.51-1.54,3.97-.03,5.49,1.51,1.52,3.96,1.54,5.49.03ZM120.51,135.24c-1.81,1.15-2.34,3.56-1.18,5.36,1.16,1.81,3.56,2.33,5.37,1.18,1.8-1.16,2.33-3.56,1.18-5.37-1.16-1.8-3.56-2.33-5.36-1.18ZM135.35,45.51c1.3-1.28,1.31-3.38.02-4.67-1.29-1.3-3.38-1.31-4.67-.03-1.3,1.29-1.31,3.38-.02,4.68,1.29,1.3,3.37,1.31,4.68.02ZM143.79,54.84c1.52-1.01,1.95-3.06.94-4.58-1-1.52-3.06-1.95-4.58-.94-1.52,1-1.95,3.06-.94,4.58,1.01,1.52,3.05,1.95,4.58.94ZM145.89,63.74c.69,1.69,2.62,2.5,4.31,1.81,1.69-.69,2.51-2.62,1.81-4.31-.69-1.69-2.61-2.51-4.31-1.82-1.69.69-2.51,2.62-1.81,4.31ZM154.3,76.93c1.79-.36,2.95-2.1,2.6-3.89-.36-1.79-2.1-2.95-3.89-2.59-1.79.36-2.95,2.1-2.59,3.89.36,1.79,2.1,2.95,3.89,2.6ZM156.28,83.19c-1.82-.01-3.32,1.46-3.33,3.28-.02,1.83,1.46,3.32,3.29,3.33,1.83.01,3.31-1.46,3.33-3.28,0-1.83-1.46-3.32-3.29-3.33ZM159.34,101.14c.41-1.78-.71-3.55-2.49-3.96-1.78-.41-3.55.7-3.96,2.49-.41,1.78.71,3.55,2.49,3.96,1.78.41,3.55-.71,3.96-2.49ZM152.31,115.02c1.67.73,3.62-.04,4.35-1.72.73-1.67-.04-3.63-1.71-4.35-1.67-.73-3.63.04-4.35,1.72-.73,1.67.04,3.62,1.72,4.35ZM151.75,124.84c1.02-1.51.63-3.57-.88-4.59-1.51-1.03-3.57-.63-4.59.88-1.03,1.51-.63,3.57.88,4.6,1.51,1.03,3.56.63,4.59-.88ZM143.92,136.31c1.31-1.27,1.35-3.36.08-4.68-1.27-1.32-3.36-1.35-4.67-.08-1.32,1.27-1.36,3.36-.09,4.68,1.27,1.31,3.37,1.35,4.68.08ZM131.02,139.8c-1.54.99-1.97,3.04-.98,4.58.99,1.53,3.04,1.97,4.57.98,1.53-.99,1.97-3.04.98-4.58-1-1.53-3.04-1.97-4.57-.98ZM132.12,33.69c1.43.97,3.39.59,4.36-.86.96-1.44.58-3.39-.86-4.36-1.45-.97-3.4-.58-4.36.86-.96,1.44-.58,3.39.86,4.36ZM147.47,42.64c1.23-1.22,1.24-3.21.02-4.44-1.22-1.23-3.21-1.24-4.45-.02-1.24,1.22-1.24,3.21-.02,4.44,1.23,1.24,3.21,1.24,4.45.02ZM156.76,55.2c1.46-.94,1.88-2.88.96-4.34-.94-1.46-2.89-1.89-4.35-.95-1.46.94-1.89,2.88-.95,4.34.93,1.46,2.88,1.89,4.34.95ZM158.24,65.28c.66,1.61,2.51,2.36,4.11,1.7,1.6-.67,2.36-2.5,1.69-4.11-.68-1.6-2.51-2.36-4.11-1.7-1.61.67-2.36,2.51-1.7,4.11ZM165.95,80.41c1.69-.36,2.78-2.02,2.43-3.72-.35-1.7-2.03-2.79-3.72-2.43-1.7.36-2.79,2.02-2.43,3.72.35,1.7,2.02,2.79,3.73,2.43ZM166.9,88.87c-1.74.01-3.14,1.43-3.12,3.16,0,1.74,1.43,3.13,3.16,3.12,1.74-.01,3.14-1.43,3.13-3.16-.01-1.74-1.43-3.13-3.17-3.12ZM164.75,110.87c1.69.36,3.36-.73,3.72-2.43.35-1.7-.73-3.37-2.43-3.72-1.7-.36-3.37.73-3.72,2.43-.36,1.7.73,3.36,2.43,3.72ZM162.31,118.77c-1.59-.68-3.45.06-4.12,1.66-.68,1.6.06,3.44,1.66,4.12,1.6.68,3.44-.06,4.12-1.65.68-1.6-.06-3.45-1.66-4.13ZM157.03,135.75c.97-1.44.58-3.39-.85-4.36-1.44-.98-3.39-.59-4.36.85-.97,1.44-.59,3.39.85,4.36,1.44.97,3.39.59,4.36-.85ZM142.42,143.55c-1.24,1.21-1.27,3.2-.07,4.45,1.21,1.24,3.2,1.27,4.45.07,1.25-1.21,1.28-3.2.07-4.45-1.21-1.25-3.2-1.28-4.45-.07ZM131.25,152.46c-1.46.93-1.88,2.88-.95,4.35.93,1.45,2.88,1.88,4.34.95,1.46-.94,1.9-2.88.95-4.34-.93-1.46-2.88-1.89-4.34-.96ZM145.88,18.65c.51-.73.33-1.73-.4-2.24-.73-.51-1.73-.33-2.24.41-.51.73-.33,1.73.41,2.24.73.51,1.73.33,2.24-.41ZM159,30.1c.64-.62.65-1.64.03-2.28-.62-.64-1.64-.65-2.29-.03-.63.62-.65,1.64-.03,2.28.62.64,1.64.65,2.28.03ZM169.52,43.51c.74-.49.94-1.49.45-2.23-.49-.74-1.49-.95-2.24-.45-.74.49-.94,1.49-.45,2.23.49.74,1.49.95,2.23.45ZM176.33,56.21c-.82.34-1.21,1.28-.87,2.1.34.82,1.28,1.21,2.1.87.82-.34,1.21-1.28.87-2.1-.34-.82-1.28-1.21-2.1-.88ZM182.27,75.26c.87-.18,1.43-1.04,1.24-1.91-.18-.87-1.04-1.43-1.91-1.24-.88.18-1.43,1.03-1.24,1.91.18.87,1.03,1.43,1.9,1.24ZM183.94,89.95c-.89,0-1.6.74-1.6,1.63.01.89.74,1.6,1.63,1.59.89,0,1.61-.74,1.6-1.63,0-.89-.74-1.6-1.63-1.59ZM182.63,108.46c-.87-.17-1.72.4-1.9,1.27-.17.87.4,1.72,1.28,1.89.87.17,1.72-.4,1.89-1.27.17-.87-.4-1.72-1.27-1.89ZM176.91,128.02c-.82-.36-1.77,0-2.13.82-.36.81.01,1.77.82,2.13.81.36,1.76,0,2.12-.82.36-.82,0-1.77-.82-2.13ZM165.69,144.83c-.52.73-.35,1.73.37,2.25.72.52,1.73.35,2.25-.37.52-.72.36-1.73-.37-2.25-.73-.52-1.73-.35-2.25.36ZM155.88,156.36c-.64.62-.64,1.64-.01,2.28.62.63,1.64.64,2.28.02.64-.62.64-1.64.02-2.28-.62-.63-1.64-.64-2.28-.02ZM142.08,167.57c-.74.49-.95,1.49-.46,2.23.49.74,1.48.95,2.22.47.76-.49.96-1.49.47-2.23-.48-.75-1.48-.95-2.23-.47ZM144.38,27.89c-.8.77-.81,2.05-.04,2.84.78.8,2.06.81,2.85.04.79-.78.81-2.05.03-2.85-.77-.8-2.05-.81-2.84-.03ZM157.89,42.11c.93-.62,1.18-1.87.57-2.79-.61-.93-1.87-1.18-2.79-.57-.92.62-1.18,1.86-.57,2.79.62.93,1.86,1.18,2.79.57ZM166.9,56.54c1.03-.41,1.54-1.58,1.12-2.61-.41-1.04-1.58-1.54-2.61-1.13-1.03.41-1.54,1.58-1.13,2.62.42,1.03,1.59,1.54,2.62,1.12ZM169.82,68.79c.22,1.09,1.27,1.79,2.37,1.58,1.09-.22,1.8-1.28,1.57-2.37-.22-1.09-1.28-1.8-2.37-1.58-1.09.22-1.79,1.28-1.57,2.37ZM174.82,80.73c-1.11.02-2,.94-1.97,2.06.02,1.11.94,1.99,2.06,1.97,1.11-.02,1.99-.94,1.97-2.05-.03-1.11-.95-2-2.06-1.97ZM173.17,99.73c-.21,1.1.51,2.15,1.6,2.36,1.09.21,2.14-.51,2.35-1.6.21-1.09-.51-2.15-1.6-2.36-1.09-.21-2.14.5-2.36,1.6ZM172.79,114.58c-1.03-.42-2.21.07-2.63,1.09-.42,1.03.06,2.21,1.09,2.63,1.03.42,2.2-.07,2.63-1.1.42-1.03-.07-2.2-1.09-2.63ZM167.05,133.5c.63-.92.39-2.17-.53-2.8-.91-.63-2.17-.39-2.8.52-.63.92-.39,2.18.52,2.8.92.63,2.18.39,2.8-.53ZM157.88,146.97c.79-.78.8-2.06.01-2.85-.77-.79-2.05-.8-2.84-.03-.8.79-.8,2.06-.03,2.85.78.79,2.06.8,2.85.02ZM143.57,155.49c-.93.61-1.2,1.86-.59,2.79.6.93,1.85,1.19,2.78.59.93-.61,1.2-1.85.59-2.78-.61-.94-1.86-1.2-2.78-.59Z"/>
    <g>
      <path class="cls-3" d="M101.56,63.94c-.77,2.76-3.64,4.38-6.4,3.61-2.77-.77-4.38-3.64-3.6-6.4.76-2.76,3.63-4.37,6.4-3.6,2.76.77,4.38,3.64,3.61,6.4"/>
      <path class="cls-3" d="M89.5,122.35c.26-2.86,2.79-4.96,5.64-4.71,2.86.26,4.97,2.79,4.71,5.65-.26,2.85-2.78,4.96-5.64,4.7-2.86-.25-4.96-2.79-4.71-5.64"/>
      <path class="cls-3" d="M78.3,118.76c1.34-2.54,4.48-3.51,7.02-2.17,2.53,1.34,3.51,4.48,2.17,7.02-1.34,2.54-4.48,3.51-7.02,2.17-2.53-1.34-3.51-4.48-2.17-7.02"/>
      <path class="cls-3" d="M69.02,110.73c2.24-1.79,5.51-1.42,7.3.83,1.79,2.25,1.42,5.51-.83,7.3-2.24,1.79-5.51,1.41-7.3-.83-1.79-2.24-1.42-5.51.83-7.3"/>
      <path class="cls-3" d="M63.77,99.72c2.77-.75,5.62.9,6.37,3.67.74,2.78-.9,5.62-3.68,6.37-2.76.75-5.62-.9-6.36-3.67-.74-2.77.91-5.62,3.68-6.36"/>
      <path class="cls-3" d="M63.26,88.02c2.85.37,4.85,2.98,4.47,5.83-.38,2.84-2.99,4.85-5.83,4.47-2.84-.37-4.85-2.99-4.47-5.83.38-2.84,2.99-4.84,5.83-4.47"/>
      <path class="cls-3" d="M67.52,76.63c2.47,1.47,3.27,4.66,1.79,7.13-1.48,2.46-4.67,3.26-7.13,1.78-2.46-1.47-3.26-4.66-1.79-7.13,1.48-2.46,4.67-3.25,7.13-1.78"/>
      <path class="cls-3" d="M75.95,67.87c1.67,2.33,1.14,5.58-1.19,7.25-2.34,1.67-5.58,1.14-7.25-1.2-1.67-2.33-1.14-5.58,1.19-7.25,2.33-1.67,5.58-1.14,7.25,1.19"/>
      <path class="cls-3" d="M88.53,62.96c.48,2.83-1.43,5.51-4.26,5.99-2.83.48-5.51-1.43-5.99-4.26-.48-2.83,1.43-5.51,4.26-5.99,2.83-.48,5.5,1.43,5.98,4.25"/>
      <path class="cls-3" d="M97.39,136.08c0,2.46-2,4.46-4.46,4.46s-4.45-2-4.45-4.46,1.99-4.46,4.45-4.46,4.46,2,4.46,4.46"/>
      <path class="cls-3" d="M110.85,132.4c.78,2.34-.48,4.86-2.82,5.64-2.34.78-4.86-.48-5.64-2.82-.78-2.33.48-4.86,2.82-5.64,2.34-.78,4.86.48,5.64,2.82"/>
      <path class="cls-3" d="M88.2,49.66c.08-2.46,2.13-4.39,4.59-4.32,2.47.08,4.4,2.14,4.32,4.6-.08,2.46-2.15,4.39-4.6,4.31-2.46-.08-4.39-2.14-4.31-4.59"/>
      <path class="cls-3" d="M101.39,50.04c.78-2.33,3.31-3.59,5.64-2.81,2.34.79,3.59,3.31,2.8,5.65-.78,2.33-3.31,3.59-5.64,2.8-2.34-.78-3.59-3.31-2.81-5.65"/>
      <path class="cls-3" d="M75.05,53.37c-.73-2.35.59-4.85,2.94-5.58,2.35-.72,4.84.59,5.58,2.94.73,2.35-.59,4.85-2.94,5.58-2.35.73-4.85-.59-5.58-2.94"/>
      <path class="cls-3" d="M63.02,61.6c-1.49-1.97-1.09-4.76.87-6.24,1.96-1.48,4.76-1.09,6.24.87,1.48,1.96,1.09,4.76-.88,6.24-1.96,1.49-4.76,1.1-6.24-.87"/>
      <path class="cls-3" d="M50.4,84.29c-2.32-.82-3.55-3.35-2.74-5.68.82-2.33,3.36-3.55,5.68-2.74,2.32.82,3.55,3.36,2.73,5.68-.81,2.32-3.35,3.55-5.68,2.73"/>
      <path class="cls-3" d="M54.71,71.75c-2.03-1.39-2.54-4.17-1.15-6.2,1.39-2.03,4.17-2.54,6.2-1.15,2.03,1.39,2.55,4.17,1.15,6.2-1.39,2.03-4.17,2.54-6.2,1.15"/>
      <path class="cls-3" d="M49.64,97.67c-2.46-.09-4.38-2.16-4.29-4.62.09-2.46,2.16-4.38,4.62-4.29,2.46.09,4.38,2.16,4.3,4.62-.09,2.46-2.16,4.38-4.62,4.3"/>
      <path class="cls-3" d="M53.17,110.92c-2.36.69-4.84-.66-5.53-3.02-.7-2.36.66-4.84,3.02-5.53,2.36-.69,4.84.66,5.53,3.02.69,2.36-.65,4.84-3.02,5.53"/>
      <path class="cls-3" d="M60.89,122.4c-1.99,1.45-4.78,1.02-6.24-.96-1.45-1.99-1.02-4.78.96-6.23,1.99-1.46,4.78-1.03,6.23.96,1.45,1.98,1.03,4.78-.96,6.23"/>
      <path class="cls-3" d="M82.52,135.32c-.85,2.31-3.41,3.5-5.72,2.65-2.31-.85-3.5-3.4-2.65-5.72.85-2.31,3.41-3.5,5.72-2.65,2.31.85,3.5,3.4,2.65,5.72"/>
      <path class="cls-3" d="M71.26,130.75c-1.43,2.01-4.21,2.49-6.22,1.06-2-1.43-2.49-4.21-1.06-6.22,1.42-2.01,4.2-2.49,6.22-1.06,2,1.42,2.48,4.2,1.06,6.21"/>
      <path class="cls-3" d="M96.81,38.28c0,2.15-1.74,3.88-3.89,3.88s-3.88-1.74-3.88-3.88,1.74-3.88,3.88-3.88,3.89,1.74,3.89,3.88"/>
      <path class="cls-3" d="M107.41,40.13c-.42,2.1-2.47,3.47-4.57,3.05-2.1-.42-3.47-2.46-3.05-4.57.42-2.1,2.47-3.47,4.57-3.05,2.1.42,3.46,2.46,3.04,4.57"/>
      <path class="cls-3" d="M116.94,43.76c-.8,1.99-3.07,2.95-5.06,2.15-1.99-.8-2.95-3.07-2.15-5.05.8-1.99,3.06-2.95,5.05-2.15,1.99.8,2.95,3.07,2.15,5.06"/>
      <path class="cls-3" d="M38.25,89.17c2.15-.02,3.89,1.71,3.91,3.86.01,2.14-1.72,3.89-3.85,3.91-2.15.01-3.89-1.71-3.91-3.85-.02-2.15,1.71-3.9,3.85-3.91"/>
      <path class="cls-3" d="M40.01,78.57c2.11.41,3.48,2.44,3.08,4.55-.41,2.11-2.44,3.49-4.55,3.08-2.11-.4-3.48-2.44-3.08-4.54.4-2.11,2.43-3.49,4.54-3.08"/>
      <path class="cls-3" d="M43.58,69.01c1.99.79,2.97,3.04,2.18,5.04-.79,2-3.05,2.97-5.04,2.18-1.99-.79-2.97-3.04-2.18-5.04.79-2,3.04-2.97,5.04-2.19"/>
      <path class="cls-3" d="M49.58,59.32c1.78,1.19,2.27,3.59,1.09,5.38-1.19,1.79-3.59,2.28-5.38,1.09-1.79-1.18-2.28-3.59-1.09-5.38,1.18-1.79,3.59-2.28,5.38-1.09"/>
      <path class="cls-3" d="M56.69,51.75c1.53,1.5,1.55,3.96.05,5.49-1.51,1.53-3.96,1.55-5.49.06-1.53-1.5-1.56-3.96-.05-5.49,1.5-1.53,3.96-1.56,5.49-.05"/>
      <path class="cls-3" d="M65.53,45.38c1.18,1.79.69,4.2-1.1,5.38-1.79,1.18-4.2.69-5.38-1.1-1.18-1.79-.69-4.2,1.1-5.38,1.79-1.18,4.19-.69,5.38,1.1"/>
      <path class="cls-3" d="M74.53,41.27c.86,1.96-.04,4.25-2,5.12-1.96.87-4.25-.03-5.12-1.99-.86-1.96.03-4.25,1.99-5.12,1.96-.86,4.25.03,5.12,1.99"/>
      <path class="cls-3" d="M85.13,38.84c.5,2.09-.78,4.18-2.87,4.68-2.09.5-4.18-.78-4.68-2.87-.51-2.09.78-4.18,2.86-4.68,2.09-.5,4.18.78,4.68,2.87"/>
      <path class="cls-3" d="M89.14,147.33c-.02-2.15,1.71-3.9,3.86-3.91,2.14-.02,3.89,1.71,3.91,3.85.01,2.15-1.71,3.9-3.86,3.91-2.14.02-3.89-1.71-3.91-3.85"/>
      <path class="cls-3" d="M78.53,145.56c.41-2.1,2.45-3.48,4.55-3.08,2.1.4,3.49,2.44,3.08,4.55-.4,2.11-2.44,3.48-4.55,3.08-2.1-.4-3.48-2.44-3.08-4.55"/>
      <path class="cls-3" d="M68.98,141.99c.79-1.99,3.05-2.97,5.04-2.18,2,.79,2.97,3.05,2.18,5.04-.79,1.99-3.05,2.97-5.04,2.18-1.99-.79-2.98-3.04-2.19-5.04"/>
      <path class="cls-3" d="M59.29,135.99c1.19-1.79,3.6-2.28,5.39-1.09,1.79,1.19,2.27,3.6,1.09,5.38-1.18,1.79-3.59,2.28-5.38,1.09-1.79-1.19-2.27-3.59-1.09-5.38"/>
      <path class="cls-3" d="M51.73,128.87c1.5-1.53,3.95-1.55,5.49-.05,1.53,1.5,1.55,3.96.05,5.49-1.5,1.53-3.96,1.56-5.49.05-1.53-1.51-1.56-3.96-.05-5.49"/>
      <path class="cls-3" d="M45.37,120.03c1.79-1.18,4.2-.69,5.38,1.1,1.18,1.79.69,4.2-1.1,5.38-1.79,1.18-4.2.69-5.38-1.11-1.18-1.79-.69-4.19,1.1-5.38"/>
      <path class="cls-3" d="M41.26,111.03c1.97-.86,4.26.03,5.11,2,.87,1.96-.02,4.25-1.99,5.12-1.96.86-4.25-.03-5.11-1.99-.87-1.96.02-4.25,1.99-5.12"/>
      <path class="cls-3" d="M38.83,100.42c2.08-.5,4.18.79,4.68,2.87.5,2.09-.79,4.18-2.87,4.68-2.08.5-4.18-.78-4.67-2.87-.5-2.09.78-4.18,2.87-4.68"/>
      <path class="cls-3" d="M110.27,144.58c-.83-1.98.09-4.25,2.07-5.09,1.98-.83,4.25.1,5.08,2.07.84,1.97-.09,4.25-2.06,5.09-1.97.83-4.25-.1-5.09-2.07"/>
      <path class="cls-3" d="M99.64,146.85c-.47-2.09.84-4.17,2.94-4.64,2.09-.47,4.17.85,4.63,2.94.47,2.09-.84,4.17-2.94,4.64-2.09.47-4.16-.85-4.63-2.94"/>
      <path class="cls-3" d="M89.05,29.08c0,1.83-1.48,3.31-3.31,3.31s-3.31-1.48-3.31-3.31,1.48-3.31,3.31-3.31,3.31,1.48,3.31,3.31"/>
      <path class="cls-3" d="M103.84,30c-.42,1.78-2.2,2.88-3.98,2.45-1.78-.42-2.88-2.2-2.46-3.98.43-1.78,2.21-2.88,3.99-2.46,1.77.42,2.87,2.21,2.45,3.98"/>
      <path class="cls-3" d="M115.33,33.21c-.74,1.67-2.7,2.42-4.36,1.67-1.67-.74-2.42-2.7-1.67-4.37.75-1.67,2.7-2.42,4.37-1.67,1.66.74,2.42,2.7,1.66,4.37"/>
      <path class="cls-3" d="M125.53,38.2c-1.03,1.51-3.08,1.9-4.6.87-1.51-1.03-1.89-3.09-.86-4.6,1.02-1.51,3.08-1.9,4.59-.87,1.52,1.03,1.9,3.09.87,4.6"/>
      <path class="cls-3" d="M119.72,150.5c-.69-1.7.12-3.63,1.81-4.32,1.69-.69,3.63.13,4.32,1.82.69,1.69-.12,3.62-1.81,4.32-1.69.68-3.62-.13-4.31-1.82"/>
      <path class="cls-3" d="M108.18,154.64c-.35-1.79.82-3.53,2.61-3.89,1.79-.36,3.53.81,3.88,2.61.35,1.79-.82,3.53-2.61,3.88-1.8.35-3.53-.81-3.88-2.61"/>
      <path class="cls-3" d="M96.32,156.48c0-1.83,1.47-3.32,3.29-3.33,1.83-.01,3.31,1.46,3.33,3.29.02,1.83-1.46,3.32-3.29,3.33-1.83.01-3.31-1.46-3.33-3.29"/>
      <path class="cls-3" d="M82.13,155.75c.4-1.79,2.16-2.92,3.95-2.52,1.78.39,2.91,2.16,2.51,3.94-.39,1.78-2.16,2.91-3.94,2.52-1.78-.39-2.91-2.16-2.52-3.94"/>
      <path class="cls-3" d="M71.73,153.12c.69-1.69,2.62-2.51,4.31-1.82,1.69.68,2.51,2.62,1.82,4.31-.69,1.69-2.62,2.51-4.31,1.82-1.69-.69-2.51-2.62-1.82-4.31"/>
      <path class="cls-3" d="M58.11,146.54c1.06-1.48,3.14-1.82,4.61-.76,1.49,1.07,1.83,3.14.76,4.62-1.07,1.49-3.14,1.82-4.62.76-1.48-1.07-1.82-3.13-.75-4.62"/>
      <path class="cls-3" d="M49.36,139.8c1.31-1.28,3.4-1.26,4.68.05,1.28,1.31,1.25,3.4-.06,4.67-1.31,1.28-3.4,1.25-4.68-.05-1.28-1.31-1.25-3.4.05-4.68"/>
      <path class="cls-3" d="M41.09,130.58c1.53-1,3.58-.57,4.58.96,1.01,1.53.58,3.58-.95,4.58-1.53,1-3.58.57-4.58-.95-1-1.53-.58-3.58.95-4.58"/>
      <path class="cls-3" d="M35.2,120.87c1.68-.71,3.63.07,4.34,1.75.72,1.68-.07,3.62-1.75,4.34-1.68.71-3.62-.07-4.34-1.75-.71-1.68.07-3.62,1.75-4.34"/>
      <path class="cls-3" d="M31.27,110.72c1.78-.42,3.56.69,3.98,2.46.42,1.78-.68,3.56-2.47,3.98-1.78.42-3.56-.69-3.98-2.46-.42-1.78.68-3.56,2.47-3.98"/>
      <path class="cls-3" d="M28.83,97.06c1.84-.02,3.34,1.44,3.36,3.26.02,1.83-1.44,3.33-3.27,3.35-1.83.02-3.33-1.44-3.36-3.26-.01-1.83,1.45-3.32,3.27-3.35"/>
      <path class="cls-3" d="M29.34,83.73c1.79.36,2.96,2.1,2.6,3.89-.36,1.79-2.1,2.95-3.89,2.6-1.79-.36-2.95-2.1-2.6-3.89.36-1.79,2.1-2.95,3.89-2.6"/>
      <path class="cls-3" d="M32.4,71.36c1.68.71,2.48,2.65,1.77,4.33-.71,1.68-2.64,2.48-4.33,1.77-1.68-.71-2.48-2.64-1.77-4.33.71-1.68,2.64-2.47,4.33-1.77"/>
      <path class="cls-3" d="M37.95,59.7c1.51,1.03,1.89,3.09.86,4.6-1.03,1.51-3.09,1.9-4.6.87-1.51-1.03-1.9-3.09-.87-4.6,1.03-1.51,3.09-1.89,4.6-.86"/>
      <path class="cls-3" d="M45.97,49.12c1.27,1.32,1.23,3.42-.1,4.68-1.32,1.26-3.41,1.22-4.68-.1-1.26-1.32-1.21-3.42.11-4.68,1.32-1.26,3.41-1.21,4.67.11"/>
      <path class="cls-3" d="M54.75,41.35c1,1.53.57,3.58-.96,4.58-1.52,1-3.57.57-4.58-.96-1-1.53-.56-3.58.96-4.59,1.53-1,3.58-.57,4.58.96"/>
      <path class="cls-3" d="M64.74,35.34c.7,1.69-.09,3.63-1.78,4.33-1.68.71-3.62-.09-4.32-1.77-.71-1.69.09-3.62,1.77-4.33,1.69-.7,3.62.09,4.33,1.77"/>
      <path class="cls-3" d="M76.56,31.01c.36,1.8-.8,3.54-2.59,3.9-1.78.36-3.54-.8-3.89-2.59-.36-1.79.8-3.53,2.59-3.9,1.79-.36,3.53.8,3.89,2.59"/>
      <path class="cls-3" d="M81,19.54c.34,1.71-.76,3.36-2.47,3.7-1.7.34-3.35-.76-3.7-2.46-.34-1.7.76-3.36,2.47-3.7,1.7-.34,3.36.76,3.7,2.46"/>
      <path class="cls-3" d="M96.15,18.67c-.02,1.74-1.43,3.14-3.16,3.12-1.74,0-3.14-1.43-3.13-3.16.01-1.74,1.43-3.13,3.16-3.13,1.74.01,3.13,1.43,3.13,3.16"/>
      <path class="cls-3" d="M113.34,21.5c-.42,1.69-2.13,2.72-3.8,2.3-1.68-.42-2.72-2.12-2.3-3.8.42-1.69,2.12-2.71,3.8-2.3,1.68.42,2.71,2.12,2.3,3.8"/>
      <path class="cls-3" d="M125.09,25.99c-.7,1.6-2.55,2.32-4.14,1.63-1.59-.69-2.32-2.55-1.63-4.14.7-1.59,2.55-2.32,4.14-1.62,1.6.7,2.32,2.55,1.63,4.14"/>
      <path class="cls-3" d="M117.69,162.68c-.65-1.61.14-3.45,1.74-4.09,1.62-.65,3.45.14,4.09,1.75.64,1.61-.14,3.44-1.75,4.09-1.61.64-3.44-.14-4.09-1.75"/>
      <path class="cls-3" d="M104.19,166.11c-.33-1.71.78-3.36,2.48-3.69,1.71-.33,3.35.78,3.69,2.48.33,1.71-.78,3.36-2.48,3.69-1.7.33-3.35-.78-3.69-2.48"/>
      <path class="cls-3" d="M88.36,166.86c.04-1.74,1.47-3.12,3.2-3.08,1.74.03,3.11,1.47,3.08,3.21-.04,1.74-1.47,3.11-3.2,3.08-1.73-.04-3.11-1.47-3.08-3.21"/>
      <path class="cls-3" d="M74.2,164.62c.37-1.7,2.04-2.77,3.74-2.41,1.69.37,2.77,2.04,2.4,3.74-.37,1.7-2.04,2.78-3.74,2.41-1.69-.37-2.77-2.04-2.41-3.74"/>
      <path class="cls-3" d="M60.24,159.47c.71-1.59,2.56-2.31,4.15-1.61,1.58.7,2.3,2.55,1.61,4.14-.71,1.59-2.56,2.31-4.15,1.61-1.59-.7-2.31-2.55-1.61-4.14"/>
      <path class="cls-3" d="M46.09,150.45c1.04-1.39,3.01-1.68,4.4-.64,1.39,1.04,1.67,3.01.63,4.4-1.03,1.39-3,1.68-4.4.64-1.39-1.04-1.67-3.01-.63-4.4"/>
      <path class="cls-3" d="M37.59,142.38c1.25-1.21,3.24-1.18,4.45.06,1.2,1.24,1.18,3.24-.06,4.44-1.25,1.21-3.23,1.18-4.45-.07-1.21-1.24-1.18-3.23.06-4.44"/>
      <path class="cls-3" d="M29.18,130.98c1.45-.95,3.4-.54,4.35.9.95,1.45.54,3.4-.91,4.35-1.45.95-3.4.54-4.35-.91-.95-1.45-.54-3.39.91-4.35"/>
      <path class="cls-3" d="M23.77,120.04c1.59-.7,3.45.02,4.15,1.61.7,1.59-.02,3.44-1.61,4.14-1.59.7-3.44-.02-4.14-1.61-.7-1.59.02-3.44,1.61-4.14"/>
      <path class="cls-3" d="M19.74,105.85c1.7-.37,3.38.7,3.75,2.4.37,1.69-.71,3.37-2.4,3.74-1.7.37-3.37-.7-3.75-2.4-.36-1.69.71-3.37,2.4-3.74"/>
      <path class="cls-3" d="M18.62,90.45c1.74,0,3.16,1.38,3.17,3.12.01,1.73-1.38,3.15-3.12,3.17-1.74.01-3.16-1.38-3.17-3.12-.01-1.73,1.38-3.15,3.11-3.16"/>
      <path class="cls-3" d="M20.65,75.45c1.7.34,2.81,2,2.47,3.7-.34,1.7-2,2.81-3.7,2.46-1.71-.34-2.81-1.99-2.47-3.7.34-1.7,2-2.8,3.7-2.46"/>
      <path class="cls-3" d="M25.32,61.92c1.61.66,2.38,2.49,1.72,4.1-.66,1.61-2.5,2.37-4.1,1.71-1.61-.66-2.38-2.5-1.72-4.1.67-1.6,2.5-2.37,4.1-1.71"/>
      <path class="cls-3" d="M32.6,49.4c1.44.97,1.84,2.91.89,4.36-.96,1.44-2.91,1.84-4.36.88-1.45-.96-1.84-2.91-.88-4.36.96-1.44,2.91-1.84,4.35-.88"/>
      <path class="cls-3" d="M43.62,37.22c1.2,1.26,1.16,3.24-.09,4.44-1.26,1.2-3.24,1.16-4.44-.1-1.2-1.26-1.16-3.24.1-4.45,1.25-1.2,3.24-1.15,4.44.1"/>
      <path class="cls-3" d="M54.21,29.41c.96,1.45.57,3.4-.88,4.36-1.45.96-3.41.56-4.36-.88-.96-1.45-.57-3.4.88-4.36,1.45-.96,3.39-.56,4.36.88"/>
      <path class="cls-3" d="M67.05,23.2c.67,1.61-.09,3.44-1.69,4.11-1.6.66-3.45-.1-4.11-1.7-.67-1.61.09-3.44,1.7-4.11,1.6-.66,3.44.1,4.1,1.7"/>
      <path class="cls-3" d="M86.46,10.53c0,1.12-.9,2.02-2.01,2.02s-2.02-.9-2.02-2.02.9-2.01,2.02-2.01,2.01.9,2.01,2.01"/>
      <path class="cls-3" d="M94.11,1.61c0,.89-.72,1.61-1.61,1.61s-1.61-.72-1.61-1.61.72-1.61,1.61-1.61,1.61.72,1.61,1.61"/>
      <path class="cls-3" d="M115.63,4.51c-.21.87-1.08,1.39-1.95,1.19-.86-.21-1.4-1.08-1.18-1.95.21-.86,1.08-1.39,1.95-1.19.86.21,1.39,1.08,1.18,1.95"/>
      <path class="cls-3" d="M132.18,10.55c-.37.81-1.33,1.16-2.14.79-.81-.37-1.16-1.33-.78-2.14.37-.81,1.32-1.16,2.13-.79.8.37,1.17,1.33.79,2.14"/>
      <path class="cls-3" d="M124.69,178.22c-.33-.83.09-1.77.91-2.09.83-.32,1.77.09,2.08.92.33.83-.08,1.76-.91,2.08-.82.33-1.76-.08-2.08-.91"/>
      <path class="cls-3" d="M108.03,182.7c-.17-.88.42-1.72,1.29-1.88.88-.16,1.72.42,1.88,1.29.16.88-.41,1.72-1.29,1.88-.87.16-1.71-.42-1.87-1.29"/>
      <path class="cls-3" d="M89.09,183.91c.02-.89.76-1.59,1.65-1.57.89.03,1.6.77,1.57,1.66-.02.89-.76,1.59-1.65,1.57-.89-.02-1.59-.77-1.57-1.65"/>
      <path class="cls-3" d="M70.04,181.1c.21-.87,1.09-1.4,1.95-1.19.86.21,1.39,1.08,1.19,1.94-.21.86-1.08,1.4-1.94,1.19-.86-.21-1.4-1.09-1.19-1.95"/>
      <path class="cls-3" d="M53.19,174.93c.38-.81,1.33-1.16,2.13-.78.81.38,1.16,1.33.79,2.14-.37.81-1.33,1.16-2.14.79-.8-.38-1.16-1.33-.78-2.14"/>
      <path class="cls-3" d="M36.93,164.87c.53-.71,1.54-.86,2.25-.32.71.54.85,1.55.32,2.26-.53.71-1.54.86-2.25.32-.71-.54-.86-1.55-.32-2.26"/>
      <path class="cls-3" d="M25.08,153.88c.65-.61,1.67-.57,2.28.08.6.66.57,1.67-.08,2.27-.65.61-1.68.58-2.28-.08-.61-.65-.57-1.67.08-2.28"/>
      <path class="cls-3" d="M15.58,141.31c.75-.48,1.75-.27,2.23.48.48.75.28,1.74-.47,2.22-.75.49-1.74.28-2.23-.47-.48-.75-.27-1.75.48-2.23"/>
      <path class="cls-3" d="M8.99,128.77c.82-.37,1.77,0,2.13.81.36.82,0,1.77-.81,2.13-.82.36-1.77,0-2.13-.81-.36-.81,0-1.76.82-2.13"/>
      <path class="cls-3" d="M3.75,112.47c.87-.21,1.74.33,1.94,1.2.2.87-.33,1.74-1.2,1.94-.87.21-1.74-.33-1.94-1.2-.21-.87.33-1.73,1.2-1.94"/>
      <path class="cls-3" d="M1.6,92.36c.9-.01,1.62.7,1.63,1.59,0,.89-.71,1.62-1.59,1.63-.89,0-1.62-.7-1.63-1.59-.01-.89.71-1.62,1.6-1.62"/>
      <path class="cls-3" d="M3.27,75.39c.88.15,1.46.99,1.3,1.87-.16.88-.99,1.46-1.86,1.3-.88-.15-1.46-.99-1.3-1.87.15-.88.99-1.46,1.87-1.3"/>
      <path class="cls-3" d="M8.83,57.19c.83.33,1.22,1.27.89,2.1-.34.82-1.28,1.22-2.1.88-.83-.33-1.22-1.27-.89-2.1.33-.82,1.28-1.22,2.1-.88"/>
      <path class="cls-3" d="M17.88,40.78c.74.5.93,1.5.44,2.23-.5.74-1.5.94-2.23.44-.74-.5-.94-1.49-.44-2.23.5-.74,1.5-.93,2.24-.44"/>
      <path class="cls-3" d="M30.11,26.55c.63.64.61,1.66-.02,2.28-.64.62-1.66.61-2.27-.03-.63-.64-.61-1.65.02-2.28.64-.62,1.66-.6,2.27.03"/>
      <path class="cls-3" d="M44.17,15.64c.49.75.28,1.74-.47,2.23-.75.48-1.75.27-2.23-.47-.49-.75-.28-1.74.47-2.23.75-.49,1.74-.27,2.23.47"/>
      <path class="cls-3" d="M60.7,7.43c.33.83-.08,1.76-.91,2.09s-1.77-.08-2.08-.91c-.33-.83.08-1.76.91-2.09.83-.32,1.76.09,2.08.91"/>
      <path class="cls-3" d="M75.95,3.17c.18.88-.38,1.72-1.26,1.9-.88.17-1.73-.39-1.9-1.26-.18-.87.39-1.72,1.26-1.9.87-.18,1.72.39,1.89,1.26"/>
      <path class="cls-3" d="M105.01,11.2c-.25,1.08-1.33,1.76-2.42,1.51-1.08-.25-1.76-1.33-1.51-2.41.25-1.08,1.33-1.76,2.41-1.51,1.08.25,1.76,1.33,1.51,2.42"/>
      <path class="cls-3" d="M121.59,15.48c-.47,1.01-1.66,1.45-2.67.98-1.01-.47-1.45-1.66-.98-2.67.47-1.01,1.66-1.45,2.67-.98,1.01.47,1.44,1.66.98,2.67"/>
      <path class="cls-3" d="M134.48,21.6c-.63.91-1.89,1.14-2.8.51-.91-.64-1.14-1.89-.51-2.8.64-.91,1.9-1.14,2.81-.51.91.63,1.15,1.89.51,2.8"/>
      <path class="cls-3" d="M129.89,166.48c-.42-1.03.06-2.2,1.1-2.62,1.02-.42,2.2.07,2.62,1.1.42,1.03-.07,2.2-1.09,2.63-1.03.42-2.21-.07-2.63-1.1"/>
      <path class="cls-3" d="M114.98,172.26c-.22-1.09.49-2.15,1.58-2.37,1.09-.22,2.15.5,2.36,1.58.22,1.09-.49,2.15-1.58,2.37-1.09.22-2.15-.49-2.37-1.58"/>
      <path class="cls-3" d="M97.89,175.14c.02-1.11.92-2,2.04-1.98,1.11.02,2,.93,1.98,2.04-.01,1.11-.93,2-2.04,1.98-1.11-.02-2-.93-1.98-2.04"/>
      <path class="cls-3" d="M79.88,174.28c.26-1.08,1.34-1.75,2.43-1.49,1.08.26,1.75,1.34,1.49,2.42-.25,1.08-1.34,1.75-2.43,1.49-1.08-.26-1.74-1.34-1.49-2.42"/>
      <path class="cls-3" d="M65.43,170.63c.45-1.02,1.64-1.48,2.66-1.03,1.01.45,1.47,1.64,1.02,2.66-.44,1.02-1.63,1.48-2.65,1.03-1.02-.45-1.48-1.64-1.04-2.65"/>
      <path class="cls-3" d="M49.16,162.82c.66-.89,1.92-1.09,2.82-.43.9.66,1.09,1.92.42,2.81-.65.9-1.91,1.09-2.81.43-.9-.66-1.09-1.92-.43-2.82"/>
      <path class="cls-3" d="M36.61,153.22c.82-.75,2.09-.7,2.85.12.75.81.7,2.09-.12,2.84-.82.75-2.09.7-2.84-.11-.76-.82-.71-2.09.11-2.85"/>
      <path class="cls-3" d="M27.01,142.6c.93-.6,2.17-.33,2.78.61.6.93.33,2.18-.61,2.78-.93.6-2.17.34-2.78-.6-.6-.94-.33-2.18.61-2.79"/>
      <path class="cls-3" d="M19.56,130.82c1.03-.44,2.21.04,2.64,1.06.44,1.02-.04,2.21-1.06,2.64-1.02.43-2.2-.04-2.64-1.06-.44-1.02.04-2.21,1.06-2.64"/>
      <path class="cls-3" d="M13.86,116.85c1.09-.24,2.16.44,2.41,1.53.24,1.09-.44,2.16-1.53,2.4-1.08.24-2.15-.44-2.4-1.53-.24-1.08.44-2.16,1.52-2.4"/>
      <path class="cls-3" d="M10.53,99.16c1.11,0,2.02.9,2.02,2.01s-.9,2.01-2.02,2.01c-1.1,0-2.01-.9-2.01-2.01,0-1.11.9-2.01,2.01-2.01"/>
      <path class="cls-3" d="M10.8,83.55c1.09.21,1.81,1.26,1.6,2.35-.21,1.09-1.27,1.81-2.36,1.6-1.09-.21-1.81-1.26-1.6-2.35.21-1.09,1.26-1.81,2.36-1.6"/>
      <path class="cls-3" d="M14.28,67.4c1.03.42,1.52,1.6,1.1,2.63-.42,1.03-1.6,1.52-2.63,1.09-1.03-.42-1.52-1.6-1.1-2.62.42-1.03,1.6-1.52,2.63-1.1"/>
      <path class="cls-3" d="M20.89,52.32c.92.62,1.17,1.87.56,2.79-.62.92-1.87,1.17-2.79.55-.93-.61-1.18-1.87-.56-2.79.62-.92,1.87-1.17,2.79-.55"/>
      <path class="cls-3" d="M31.16,37.93c.78.8.75,2.07-.05,2.85-.8.77-2.07.75-2.84-.06-.77-.8-.75-2.07.05-2.84.8-.77,2.08-.75,2.85.05"/>
      <path class="cls-3" d="M43.17,26.87c.6.93.32,2.18-.61,2.78-.94.6-2.19.32-2.77-.61-.6-.94-.33-2.18.61-2.78.94-.6,2.18-.32,2.78.61"/>
      <path class="cls-3" d="M56.29,18.8c.42,1.03-.08,2.2-1.11,2.62-1.03.41-2.2-.09-2.62-1.12-.42-1.03.09-2.2,1.12-2.62,1.03-.41,2.2.09,2.61,1.12"/>
      <path class="cls-3" d="M71.44,13.09c.21,1.09-.51,2.14-1.61,2.35-1.09.2-2.14-.52-2.34-1.61-.21-1.09.51-2.15,1.6-2.35,1.09-.2,2.15.52,2.35,1.61"/>
    </g>
    <g>
      <path class="cls-1" d="M113.69,103.56c-5.09,6.81-11.65,10.42-20.02,10.42-10.75,0-21.08-6.81-21.08-21.9,0-13.78,8.86-21.57,20.43-21.57,10.83,0,15.34,6.48,16.16,7.71,3.36,4.76,4.1,11.89,4.18,16h-30.35c1.15,6.48,5.17,10.17,11.65,10.17s9.43-3.94,10.66-5.66l8.37,4.84ZM102.54,86.99c-.91-6.4-4.84-8.61-9.19-8.61-5.25,0-8.86,3.04-10.01,8.61h19.2Z"/>
      <path class="cls-1" d="M130.67,71.73v5.82c1.23-2.13,3.94-6.97,13.13-6.73v10.09c-2.13.08-5.82.16-8.86,2.46-4.18,3.2-4.27,7.38-4.27,14.19v15.18h-9.52v-41.02h9.52Z"/>
      <path class="cls-1" d="M174.97,86.25c-.74-2.71-3.61-6.97-9.27-6.97s-10.18,4.51-10.18,12.72c0,7.38,3.86,12.8,10.34,12.8s8.61-4.76,9.84-8.04l8.45,4.43c-3.2,8.86-11.32,12.8-18.46,12.8-11.41,0-20.34-8.78-20.34-21.74s9.02-21.74,20.67-21.74c10.33,0,15.59,6.89,17.72,11.65l-8.78,4.1Z"/>
    </g>
  </g>
</svg>