<?xml version="1.0" encoding="UTF-8"?>
<svg id="EN" xmlns="http://www.w3.org/2000/svg" viewBox="0 0 283.46 283.46">
  <defs>
    <style>
      .cls-1 {
        fill: #bcbec0;
      }

      .cls-2 {
        fill: #fff;
      }

      .cls-3 {
        fill: #636466;
      }

      .cls-4 {
        fill: #034ea2;
      }

      .cls-5 {
        fill: #fff200;
      }
    </style>
  </defs>
  <g>
    <path class="cls-1" d="M10.45,104.46s78.51-10.16,80.73-10.52c3.4-.55,6.42-1.2,9.23-1.98,6.35-1.74,12.2-4.39,17.37-7.89,4.96-3.33,9.58-8.17,14.15-13.48,2.91-3.38,5.96-7.78,8.81-12.04v-2.05c-3.38,5-6.71,9.32-10.14,13.12-4.54,5.05-9.3,9.19-14.16,12.29-5.01,3.23-10.65,5.63-16.76,7.16-2.74.69-5.67,1.25-8.97,1.71-2.17.31-4.41.54-6.58.77-.87.09-73.69,7.82-73.69,7.82v5.1Z"/>
    <path class="cls-1" d="M115.73,91.29c-4.91,2.83-10.59,4.89-16.87,6.15-2.68.54-5.6.98-8.94,1.34-1.96.21-3.93.38-5.9.55-1.07.09-2.13.18-3.19.28-24.06,2.16-47.99,4.45-70.38,6.62v5.09c22.56-2.72,46.66-5.6,70.71-8.32,1.07-.13,2.14-.24,3.21-.36,1.97-.22,3.94-.43,5.92-.7,3.42-.46,6.42-.98,9.15-1.6,6.52-1.46,12.42-3.76,17.51-6.84,5.06-3.04,9.53-7.29,14.34-12.49,2.99-3.24,6.33-7.8,9.44-12.1v-1.87c-3.67,4.98-7.16,9.17-10.6,12.73-4.69,4.86-9.54,8.73-14.4,11.5Z"/>
    <path class="cls-1" d="M129.47,90.05c-4.79,4.39-9.79,7.85-14.87,10.27-4.96,2.39-10.51,4.07-16.98,5.14-2.67.44-5.57.8-8.86,1.1l-78.32,6.43v5.08l69.62-7.39,9.01-.95c3.39-.39,6.35-.83,9.05-1.34,6.69-1.26,12.44-3.15,17.55-5.77,5.23-2.64,10.46-7.04,15.31-11.7,3.26-3.12,6.4-7.16,9.76-11.39v-1.69c-3.87,4.82-7.57,8.83-11.27,12.21Z"/>
    <path class="cls-1" d="M110.54,116.43c-4.56,2.55-7.97,4.02-14.48,4.7-3.94.42-7.98.63-11.89.82-1.89.09-3.79.19-5.68.31-11.83.68-23.45,1.43-35.31,2.2l-32.73,2.2v5.08l33.05-3.03c10.68-.96,23.09-2.06,35.21-3.05l8.81-.68c3.44-.26,6.26-.54,8.87-.89,6.7-.86,12.42-2.22,17.49-4.13,5.46-2.04,10.61-5.21,15.77-8.94,4.65-3.36,11.08-9.99,11.09-10.07v-1.79c-4.21,4.1-6.63,6.41-11.23,9.44-5.5,3.63-14.89,5.55-18.97,7.84Z"/>
    <path class="cls-1" d="M112.2,126.09c-4.94,1.45-10.5,2.43-17,3-2.63.23-5.47.4-8.68.53l-8.76.38c-21.77,1.01-43.43,2.14-67.31,3.41v5.07c22.81-1.77,45.16-3.48,67.5-5.07l8.73-.6c3.37-.22,6.17-.46,8.8-.76,6.66-.75,12.36-1.89,17.42-3.51,5.61-1.78,11.07-4.35,16.24-7.65,3.82-2.43,7.64-5.33,11.6-8.79v-.09c-4.37,3.73-8.53,4.55-12.67,7.06-5.08,3.08-10.42,5.44-15.87,7.02Z"/>
    <path class="cls-1" d="M111.39,134.51c-4.98,1.16-10.37,1.91-16.97,2.35-2.55.17-5.29.3-8.62.4l-8.68.31c-21.86.83-44.03,1.78-66.67,2.76v5.07c22.5-1.53,44.58-3.03,66.84-4.42l8.66-.52c3.39-.19,6.16-.39,8.7-.62,6.73-.62,12.23-1.52,17.32-2.84,5.71-1.47,11.26-3.63,16.5-6.41,4.05-2.15,8.09-4.73,12.27-7.83v-2.17c-4.52,3.27-8.86,5.93-13.21,8.1-5.14,2.57-10.57,4.53-16.14,5.82Z"/>
    <path class="cls-1" d="M110.65,142.76c-4.99.91-10.37,1.5-16.93,1.84-2.47.13-5.1.22-8.56.3l-74.72,2.02v5.06l66.26-3.46,8.58-.44c3.35-.16,6.09-.32,8.62-.52,6.64-.51,12.11-1.24,17.2-2.3,5.78-1.2,11.39-2.95,16.67-5.2,4.25-1.8,8.52-4,12.95-6.68v-2.03c-4.74,2.76-9.25,4.97-13.73,6.74-5.21,2.07-10.71,3.64-16.36,4.67Z"/>
    <path class="cls-1" d="M110.07,151.05c-9.17,1.22-18.61,1.36-27.73,1.5-2.09.03-4.19.06-6.27.11l-65.61,1.18v5.05l65.72-2.83c2.08-.09,4.17-.18,6.26-.26,9.19-.37,18.7-.75,27.99-2.22,5.88-.93,11.54-2.3,16.83-4.08,4.37-1.46,8.91-3.36,13.5-5.6v-1.94c-4.82,2.25-9.57,4.11-14.13,5.51-5.22,1.61-10.79,2.82-16.55,3.58Z"/>
    <path class="cls-1" d="M109.54,159.4c-8.59.71-17.38.71-25.89.71-2.65,0-5.29,0-7.94.02-21.73.09-43.3.27-65.27.46v5.06c20.93-.71,43.14-1.45,65.35-2.11,2.64-.09,5.27-.15,7.91-.22,8.55-.21,17.39-.44,26.07-1.38,6.06-.65,11.58-1.6,16.87-2.91,4.61-1.13,9.34-2.64,14.1-4.46v-1.86c-4.91,1.76-9.8,3.2-14.56,4.25-5.23,1.16-10.68,1.95-16.64,2.44Z"/>
    <path class="cls-1" d="M109.21,167.62c-3.58.14-7.45.21-11.85.21-1.66,0-3.32,0-4.98-.02l-16.91-.21c-11.54-.09-23.03-.1-33.82-.11l-31.21.03v5.05l31.28-.82c10.74-.26,22.27-.54,33.77-.75l16.89-.22c4.63-.07,10.75-.21,16.95-.62,6.07-.39,11.6-1,16.89-1.84,4.77-.76,9.63-1.79,14.51-3.03v-1.79c-5,1.15-9.98,2.08-14.8,2.72-5.27.71-10.74,1.16-16.73,1.4Z"/>
    <path class="cls-1" d="M92.19,175.57l-16.85-.18c-21.5-.3-42.98-.7-64.88-1.1v5.06c20.91-.14,43.06-.3,64.9-.54l16.86-.25c5.68-.1,11.25-.2,16.87-.39,11.59-.37,21.96-1.19,31.66-2.47v-1.76c-9.73,1.05-20.13,1.6-31.72,1.67-5.61.05-11.22,0-16.84-.04Z"/>
    <polygon class="cls-1" points="140.74 184.51 10.45 181.2 10.45 186.25 140.74 186.25 140.74 184.51"/>
  </g>
  <path class="cls-1" d="M129.01,99.59c-4.95,3.98-8.77,6.8-14.83,9.21-5.27,2.1-10.94,2.96-17.42,3.84-4.17.58-8.52,1.45-12.68,1.72-1.71.11-3.42.23-5.13.36l-68.51,4.99v5.07l68.79-6.67,8.92-.84c3.31-.31,6.24-.68,8.98-1.12,6.67-1.07,12.41-2.7,17.56-5,5.34-2.36,10.75-6.21,15.77-10.44,3.42-2.87,6.71-6.48,10.28-10.43v-1.82c-4.33,4.47-7.91,8.05-11.73,11.11Z"/>
  <polygon class="cls-2" points="64.61 234.71 178.74 234.71 178.74 183.96 64.61 183.96 64.61 234.71 64.61 234.71"/>
  <polygon class="cls-4" points="178.76 186.25 178.76 109.89 64.61 109.89 64.61 186.25 178.76 186.25 178.76 186.25"/>
  <polygon class="cls-5" points="122.92 120.75 126.89 120.75 123.69 123.24 124.93 127.2 121.74 124.76 118.56 127.2 119.81 123.24 116.59 120.75 120.54 120.75 121.74 116.89 122.92 120.75 122.92 120.75"/>
  <polygon class="cls-5" points="123.06 171.67 127.04 171.67 123.84 174.08 125.08 177.88 121.89 175.54 118.7 177.88 119.96 174.08 116.73 171.67 120.69 171.67 121.89 167.96 123.06 171.67 123.06 171.67"/>
  <polygon class="cls-5" points="135.66 168.3 139.63 168.3 136.43 170.7 137.68 174.51 134.49 172.16 131.3 174.51 132.56 170.7 129.32 168.3 133.29 168.3 134.49 164.59 135.66 168.3 135.66 168.3"/>
  <polygon class="cls-5" points="135.66 124.15 139.63 124.15 136.43 126.55 137.68 130.35 134.49 128.01 131.3 130.35 132.56 126.55 129.32 124.15 133.29 124.15 134.49 120.44 135.66 124.15 135.66 124.15"/>
  <polygon class="cls-5" points="145.01 133.5 148.98 133.5 145.78 135.9 147.02 139.71 143.83 137.36 140.65 139.71 141.91 135.9 138.67 133.5 142.63 133.5 143.83 129.79 145.01 133.5 145.01 133.5"/>
  <polygon class="cls-5" points="145.01 159.08 148.98 159.08 145.78 161.48 147.02 165.29 143.83 162.94 140.65 165.29 141.91 161.48 138.67 159.08 142.63 159.08 143.83 155.37 145.01 159.08 145.01 159.08"/>
  <polygon class="cls-5" points="148.51 146.09 152.49 146.09 149.29 148.49 150.53 152.3 147.34 149.95 144.15 152.3 145.41 148.49 142.18 146.09 146.14 146.09 147.34 142.38 148.51 146.09 148.51 146.09"/>
  <polygon class="cls-5" points="110.08 124.18 114.05 124.18 110.85 126.58 112.09 130.39 108.9 128.04 105.71 130.39 106.97 126.58 103.74 124.18 107.7 124.18 108.9 120.47 110.08 124.18 110.08 124.18"/>
  <polygon class="cls-5" points="100.98 133.53 104.96 133.53 101.76 135.93 103 139.74 99.81 137.39 96.63 139.74 97.88 135.93 94.65 133.53 98.62 133.53 99.81 129.82 100.98 133.53 100.98 133.53"/>
  <polygon class="cls-5" points="97.61 146.12 101.58 146.12 98.38 148.53 99.63 152.33 96.44 149.99 93.25 152.33 94.5 148.53 91.28 146.12 95.24 146.12 96.44 142.42 97.61 146.12 97.61 146.12"/>
  <polygon class="cls-5" points="100.98 159.11 104.96 159.11 101.76 161.51 103 165.32 99.81 162.97 96.63 165.32 97.88 161.51 94.65 159.11 98.62 159.11 99.81 155.4 100.98 159.11 100.98 159.11"/>
  <polygon class="cls-5" points="110.21 168.33 114.18 168.33 110.98 170.73 112.22 174.54 109.03 172.19 105.85 174.54 107.1 170.73 103.88 168.33 107.83 168.33 109.03 164.62 110.21 168.33 110.21 168.33"/>
  <polygon class="cls-4" points="64.61 239.72 178.77 239.72 178.77 233.21 64.61 233.21 64.61 239.72 64.61 239.72"/>
  <path class="cls-1" d="M195,56.25s23.8,37.06,28.15,43.88c4.35,6.81,9.33,12.2,26.94,15.86,17.61,3.66,25.28,5.39,25.28,5.39v1.32s-11.19-2.34-25.59-5.49c-14.4-3.15-20.28-4.21-26.85-13.16-5.46-7.45-27.93-39.11-27.93-39.11v-8.68Z"/>
  <path class="cls-1" d="M195,66.79s24.59,35.24,27.86,39.55c3.26,4.32,7.66,11.28,27.1,15.39,5.02,1.06,25.47,5.08,25.47,5.08v1.11s-15.54-2.99-25.47-5.08c-9.93-2.09-20.37-4-27.03-12.4-6.05-7.63-27.98-35.77-27.98-35.77l.05-7.89Z"/>
  <path class="cls-1" d="M195,77.37s23.18,29.94,27.86,35.93c4.68,5.99,11.14,10.93,27.1,14,9.2,1.77,25.4,4.74,25.4,4.74v1.11s-14.19-2.65-25.4-4.67c-11.21-2.02-20.47-3.97-27.1-11.42-5.82-6.53-27.91-32.22-27.91-32.22l.05-7.47Z"/>
  <path class="cls-1" d="M194.96,87.77s23.46,27.16,27.97,32.01c7.03,7.54,10.43,10.15,27.03,13.3,6.64,1.26,25.4,4.53,25.4,4.53v1.18s-15.54-2.79-25.4-4.53c-9.86-1.74-18.21-2.39-27.1-10.93-6.78-6.51-27.86-28.55-27.86-28.55l-.05-7.01Z"/>
  <path class="cls-1" d="M195,98.59s21.67,22.26,27.93,28.64c6.65,6.78,15.16,9.28,26.96,11.35,11.26,1.97,25.47,4.25,25.47,4.25v1.25s-13.34-2.14-25.47-4.18c-11.89-2-20.22-3.11-27.03-9.26-6.1-5.51-27.86-25.51-27.86-25.51v-6.55Z"/>
  <path class="cls-1" d="M195,108.62s20.6,18.76,27.93,25.16c6.74,5.9,12.2,7.73,27.03,10.31,14.83,2.58,25.4,4.18,25.4,4.18v1.32s-13.41-2.16-25.47-4.04c-12.06-1.88-19.75-2.62-26.96-8.36-8.33-6.62-27.93-22.45-27.93-22.45v-6.13Z"/>
  <path class="cls-1" d="M194.95,119.34s23.51,18.27,27.91,21.47c4.4,3.2,10.22,6.94,27.1,9.33,16.74,2.37,25.33,3.55,25.33,3.55v1.39s-15.18-2.16-25.33-3.41c-10.15-1.25-17.92-1.79-27.03-7.73-8.86-5.79-27.93-18.94-27.93-18.94l-.05-5.66Z"/>
  <path class="cls-1" d="M194.95,129.6s23.58,15.39,28.05,17.83c4.47,2.44,9.72,6.41,26.96,8.57,17.24,2.16,25.33,3.13,25.33,3.13v1.32s-14.26-1.53-25.4-2.71c-11.14-1.18-18.73-2.79-27.03-7.24-8.3-4.46-27.86-15.65-27.86-15.65l-.05-5.25Z"/>
  <path class="cls-1" d="M195,139.86s20.87,11.12,27.93,14.6c7.88,3.88,14.69,5.73,27.03,7.17,12.12,1.41,25.4,2.79,25.4,2.79v1.25s-12.28-1.29-25.4-2.51c-13.01-1.21-17.64-1.76-27.03-5.85-8.4-3.65-27.97-12.58-27.97-12.58l.05-4.87Z"/>
  <path class="cls-1" d="M195,150.31s16.41,6.89,28,11.4c11.4,4.43,20.1,4.81,27.03,5.57,3.05.34,25.26,2.58,25.26,2.58v1.25s-13.27-1.04-25.33-2.09c-12.06-1.04-17.26-1.49-27.03-4.67-9.88-3.22-27.98-9.4-27.98-9.4l.05-4.64Z"/>
  <path class="cls-1" d="M195,160.89s16.65,5.06,28,7.99c11.35,2.92,21.78,4.11,27.03,4.46,5.25.35,25.26,1.95,25.26,1.95v1.19s-11.35-.76-25.33-1.74c-11.3-.79-20.38-1.62-27.03-3.06-7.37-1.59-27.97-6.41-27.97-6.41l.05-4.36Z"/>
  <path class="cls-1" d="M194.96,171.34s13.66,2.3,28.05,4.64c10.78,1.75,25.4,2.86,26.96,2.93,1.56.07,25.4,1.67,25.4,1.67v1.25s-15.26-.77-25.4-1.32c-10.56-.57-21.07-1.2-27.03-1.81-13.36-1.37-27.97-3.18-27.97-3.18v-4.18Z"/>
  <path class="cls-1" d="M195,182.16s21.47.79,28,.93c6.53.14,52.36,1.95,52.36,1.95v1.25l-80.36-.05v-4.09Z"/>
  <g>
    <path class="cls-3" d="M71.28,193.78c0-.23.11-.36.36-.36h6.63c.22,0,.34.13.34.34v1.12c0,.22-.09.32-.36.32h-4.92v3.1h4.36c.23,0,.36.11.36.32v1.12c0,.22-.09.32-.36.32h-4.36v3.55h5.04c.22,0,.32.11.32.34v1.1c0,.23-.09.32-.34.32h-6.72c-.25,0-.36-.11-.36-.32v-11.27Z"/>
    <path class="cls-3" d="M87.05,205.37h-1.28c-.27,0-.34-.13-.34-.34v-.56l-.04-.02c-.7.49-1.93,1.08-3.02,1.08-2.43,0-2.66-1.44-2.66-3.33v-5.29c0-.22.09-.36.34-.36h1.31c.23,0,.32.13.32.36v5.06c0,1.08.22,1.76,1.31,1.76.77,0,1.96-.58,2.43-.81v-6.01c0-.22.07-.36.34-.36h1.28c.25,0,.34.13.34.36v8.12c0,.23-.09.34-.34.34Z"/>
    <path class="cls-3" d="M90.9,205.03c0,.22-.09.34-.34.34h-1.3c-.25,0-.34-.11-.34-.34v-8.12c0-.23.09-.36.34-.36h1.28c.27,0,.36.14.36.36v.79l.04.04c.54-.5,1.82-1.12,2.66-1.28.23-.05.4,0,.43.31l.13,1.21c.02.25.04.36-.34.43-1.01.2-2.29.56-2.92.83v5.8Z"/>
    <path class="cls-3" d="M98.46,205.52c-3.62,0-3.85-2.65-3.85-4.7,0-1.69.38-4.45,3.85-4.45s3.98,2.32,3.98,4.45-.25,4.7-3.98,4.7ZM98.48,198.1c-1.53,0-1.87.97-1.87,2.84s.34,2.85,1.85,2.85c1.64,0,1.96-.92,1.96-2.85s-.31-2.84-1.94-2.84Z"/>
    <path class="cls-3" d="M107.67,205.54c-.59,0-1.42-.11-2.25-.4l-.02.02v3.17c0,.2-.05.36-.34.36h-1.28c-.29,0-.34-.13-.34-.36v-11.42c0-.23.09-.36.34-.36h1.28c.25,0,.32.14.32.36v.54l.05.04c.65-.45,1.8-1.08,2.84-1.08,2.36,0,2.97,1.78,2.97,4.5,0,2.93-.74,4.63-3.58,4.63ZM107.82,198.21c-.74,0-1.87.52-2.41.81v4.5c.81.23,1.46.31,2.07.31,1.3,0,1.75-.67,1.75-2.93s-.45-2.68-1.4-2.68Z"/>
    <path class="cls-3" d="M114.35,201.5c.05,1.82.7,2.32,2.18,2.32.65,0,1.66-.13,2.34-.2.32-.04.43-.04.49.31l.11.59c.05.27.02.41-.31.56-.7.27-2.02.45-2.9.45-3.44,0-3.94-2.2-3.94-4.54,0-1.75.32-4.63,3.84-4.63,3.22,0,3.8,2.09,3.85,4.03.02.65-.16,1.1-.88,1.1h-4.77ZM114.37,200.15h3.57c0-1.1-.29-2.16-1.78-2.16-1.33,0-1.69.81-1.78,2.16Z"/>
    <path class="cls-3" d="M126.49,204.35c-.9.68-2.11,1.17-3.31,1.17-1.91,0-2.47-1.04-2.47-2.56-.02-2.11,1.12-3.01,3.38-3.01h2.3v-.47c0-1.08-.4-1.46-1.87-1.46-.59,0-1.73.09-2.45.16-.36.05-.45.04-.5-.22l-.16-.67c-.04-.23.02-.38.41-.54.77-.27,2.2-.4,3.04-.4,3.11,0,3.49,1.28,3.49,3.29v3.48c0,.74.09.76.65.83.27.02.34.07.34.27v.76c0,.2-.13.32-.43.38-.29.05-.58.09-.85.09-.85,0-1.37-.25-1.55-1.1l-.04-.02ZM126.38,201.36h-2.2c-.9,0-1.48.32-1.48,1.51,0,.79.27,1.04,1.12,1.04.77,0,1.87-.45,2.56-.85v-1.71Z"/>
    <path class="cls-3" d="M137.2,205.37h-1.3c-.23,0-.34-.11-.34-.34l.02-5.06c0-1.06-.25-1.76-1.3-1.76-.72,0-1.98.58-2.47.81v6.01c0,.22-.09.34-.34.34h-1.28c-.25,0-.34-.11-.34-.34v-8.12c0-.23.09-.36.34-.36h1.28c.25,0,.34.13.34.36v.54s.04.02.05.02c.67-.47,1.93-1.08,3.02-1.08,2.43,0,2.65,1.6,2.65,3.42v5.22c0,.22-.07.34-.34.34Z"/>
    <path class="cls-3" d="M75.98,212.29c.88,0,2.34.13,3.3.52.29.13.4.27.34.56l-.16.74c-.05.22-.14.31-.47.27-.88-.11-1.96-.23-2.9-.23-2.45,0-2.81,1.98-2.81,4.32s.45,4.21,2.81,4.21c1.04,0,1.93-.11,2.9-.23.34-.04.41.05.49.29l.14.68c.07.29-.02.45-.31.58-.88.38-2.45.54-3.33.54-4.02,0-4.86-2.97-4.86-6.03s.76-6.21,4.86-6.21Z"/>
    <path class="cls-3" d="M83.68,224.52c-3.62,0-3.85-2.65-3.85-4.7,0-1.69.38-4.45,3.85-4.45s3.98,2.32,3.98,4.45-.25,4.7-3.98,4.7ZM83.7,217.1c-1.53,0-1.87.97-1.87,2.84s.34,2.85,1.85,2.85c1.64,0,1.96-.92,1.96-2.85s-.31-2.84-1.94-2.84Z"/>
    <path class="cls-3" d="M101.27,224.37h-1.3c-.25,0-.34-.11-.34-.34v-5.11c0-1.33-.32-1.71-1.22-1.71-.67,0-1.75.52-2.3.81,0,.18.02.5.02.92v5.1c0,.22-.07.34-.34.34h-1.31c-.23,0-.31-.11-.31-.34v-5.2c0-1.1-.29-1.62-1.19-1.62-.63,0-1.64.45-2.32.81v6.01c0,.22-.09.34-.34.34h-1.3c-.23,0-.32-.11-.32-.34v-8.12c0-.23.09-.36.32-.36h1.28c.27,0,.36.14.36.36v.52l.02.02c.7-.49,1.69-1.03,2.68-1.06,1.04,0,1.91.22,2.47,1.26.9-.67,2.02-1.26,3.17-1.26,2.38,0,2.61,1.55,2.61,3.35v5.29c0,.22-.07.34-.32.34Z"/>
    <path class="cls-3" d="M115.38,224.37h-1.3c-.25,0-.34-.11-.34-.34v-5.11c0-1.33-.32-1.71-1.22-1.71-.67,0-1.75.52-2.3.81,0,.18.02.5.02.92v5.1c0,.22-.07.34-.34.34h-1.31c-.23,0-.31-.11-.31-.34v-5.2c0-1.1-.29-1.62-1.19-1.62-.63,0-1.64.45-2.32.81v6.01c0,.22-.09.34-.34.34h-1.3c-.23,0-.32-.11-.32-.34v-8.12c0-.23.09-.36.32-.36h1.28c.27,0,.36.14.36.36v.52l.02.02c.7-.49,1.69-1.03,2.68-1.06,1.04,0,1.91.22,2.47,1.26.9-.67,2.02-1.26,3.17-1.26,2.38,0,2.61,1.55,2.61,3.35v5.29c0,.22-.07.34-.32.34Z"/>
    <path class="cls-3" d="M118.19,214.26c-.94,0-1.06-.52-1.06-1.04,0-.58.2-1.03,1.06-1.03s1.06.41,1.06,1.03c0,.56-.16,1.04-1.06,1.04ZM119.14,224.03c0,.2-.07.34-.32.34h-1.28c-.25,0-.36-.11-.36-.34v-8.14c0-.25.11-.34.36-.34h1.28c.25,0,.32.14.32.34v8.14Z"/>
    <path class="cls-3" d="M123.6,224.52c-.9,0-2.11-.13-2.79-.4-.36-.14-.43-.31-.38-.59l.13-.59c.05-.29.18-.31.47-.27.79.13,1.94.22,2.56.22,1.15,0,1.62-.31,1.62-1.03,0-.83-.31-1.01-1.44-1.17-1.76-.25-3.31-.63-3.31-2.59,0-1.78,1.37-2.72,3.38-2.72.74,0,1.98.11,2.74.4.31.13.43.27.38.54l-.14.65c-.05.25-.16.29-.49.25-.77-.09-1.78-.2-2.45-.2-1.15,0-1.42.32-1.42,1.01s.43.79,1.53.97c1.71.25,3.26.59,3.26,2.74s-1.78,2.79-3.64,2.79Z"/>
    <path class="cls-3" d="M131.15,224.52c-.9,0-2.11-.13-2.79-.4-.36-.14-.43-.31-.38-.59l.13-.59c.05-.29.18-.31.47-.27.79.13,1.94.22,2.56.22,1.15,0,1.62-.31,1.62-1.03,0-.83-.31-1.01-1.44-1.17-1.76-.25-3.31-.63-3.31-2.59,0-1.78,1.37-2.72,3.38-2.72.74,0,1.98.11,2.74.4.31.13.43.27.38.54l-.14.65c-.05.25-.16.29-.49.25-.77-.09-1.78-.2-2.45-.2-1.15,0-1.42.32-1.42,1.01s.43.79,1.53.97c1.71.25,3.26.59,3.26,2.74s-1.78,2.79-3.64,2.79Z"/>
    <path class="cls-3" d="M137,214.26c-.94,0-1.06-.52-1.06-1.04,0-.58.2-1.03,1.06-1.03s1.06.41,1.06,1.03c0,.56-.16,1.04-1.06,1.04ZM137.95,224.03c0,.2-.07.34-.32.34h-1.28c-.25,0-.36-.11-.36-.34v-8.14c0-.25.11-.34.36-.34h1.28c.25,0,.32.14.32.34v8.14Z"/>
    <path class="cls-3" d="M143.14,224.52c-3.62,0-3.85-2.65-3.85-4.7,0-1.69.38-4.45,3.85-4.45s3.98,2.32,3.98,4.45-.25,4.7-3.98,4.7ZM143.15,217.1c-1.53,0-1.87.97-1.87,2.84s.34,2.85,1.85,2.85c1.64,0,1.96-.92,1.96-2.85s-.31-2.84-1.95-2.84Z"/>
    <path class="cls-3" d="M155.43,224.37h-1.3c-.23,0-.34-.11-.34-.34l.02-5.06c0-1.06-.25-1.76-1.3-1.76-.72,0-1.98.58-2.47.81v6.01c0,.22-.09.34-.34.34h-1.28c-.25,0-.34-.11-.34-.34v-8.12c0-.23.09-.36.34-.36h1.28c.25,0,.34.13.34.36v.54s.04.02.05.02c.67-.47,1.93-1.08,3.02-1.08,2.43,0,2.65,1.6,2.65,3.42v5.22c0,.22-.07.34-.34.34Z"/>
  </g>
</svg>