<?xml version="1.0" encoding="UTF-8" standalone="no"?>
<!-- Created with Inkscape (http://www.inkscape.org/) -->

<svg
   version="1.1"
   id="svg1"
   width="204.09467"
   height="204.09467"
   viewBox="0 0 204.09467 204.09467"
   sodipodi:docname="TUe-logo-square-white.svg"
   xml:space="preserve"
   inkscape:export-filename="TUe-logo-square-white.ai.svg"
   inkscape:export-xdpi="96"
   inkscape:export-ydpi="96"
   inkscape:version="1.4.2 (ebf0e940, 2025-05-08)"
   xmlns:inkscape="http://www.inkscape.org/namespaces/inkscape"
   xmlns:sodipodi="http://sodipodi.sourceforge.net/DTD/sodipodi-0.dtd"
   xmlns="http://www.w3.org/2000/svg"
   xmlns:svg="http://www.w3.org/2000/svg"><defs
     id="defs1"><clipPath
       clipPathUnits="userSpaceOnUse"
       id="clipPath1"><path
         d="M 0,153.071 H 153.071 V 0 H 0 Z"
         id="path1" /></clipPath><clipPath
       clipPathUnits="userSpaceOnUse"
       id="clipPath3"><path
         d="M 0,153.071 H 153.071 V 0 H 0 Z"
         transform="matrix(1.3333333,0,0,-1.3333333,0,204.09467)"
         id="path3" /></clipPath><clipPath
       clipPathUnits="userSpaceOnUse"
       id="clipPath6"><path
         d="M 0,153.071 H 153.071 V 0 H 0 Z"
         transform="translate(-84.026005,-68.243302)"
         id="path6" /></clipPath><clipPath
       clipPathUnits="userSpaceOnUse"
       id="clipPath8"><path
         d="M 0,153.071 H 153.071 V 0 H 0 Z"
         transform="translate(-90.145405,-56.088599)"
         id="path8" /></clipPath><clipPath
       clipPathUnits="userSpaceOnUse"
       id="clipPath10"><path
         d="M 0,153.071 H 153.071 V 0 H 0 Z"
         transform="translate(-114.9034,-79.765002)"
         id="path10" /></clipPath></defs><sodipodi:namedview
     id="namedview1"
     pagecolor="#ffffff"
     bordercolor="#000000"
     borderopacity="0.25"
     inkscape:showpageshadow="2"
     inkscape:pageopacity="0.0"
     inkscape:pagecheckerboard="0"
     inkscape:deskcolor="#d1d1d1"
     inkscape:export-bgcolor="#742459ff"
     inkscape:zoom="0.86955074"
     inkscape:cx="35.650594"
     inkscape:cy="192.62821"
     inkscape:window-width="976"
     inkscape:window-height="916"
     inkscape:window-x="0"
     inkscape:window-y="38"
     inkscape:window-maximized="0"
     inkscape:current-layer="svg1"><inkscape:page
       x="0"
       y="0"
       inkscape:label="1"
       id="page1"
       width="204.09467"
       height="204.09467"
       margin="0"
       bleed="0" /></sodipodi:namedview><g
     id="layer-MC1"
     inkscape:groupmode="layer"
     inkscape:label="logo_OP"><g
       id="g10"
       transform="translate(-118.26709,-209.73009)"><g
         id="layer1"
         style="display:inline;fill:#f00000;fill-opacity:1"
         transform="translate(118.45197,207.00345)"><rect
           style="fill:#742459;fill-opacity:1;stroke:#84d200;stroke-width:4.60364"
           id="rect70"
           width="214.76154"
           height="219.4381"
           x="-4.9671025"
           y="-6.5415788" /></g></g></g><g
     id="layer-MC0"
     inkscape:groupmode="layer"
     inkscape:label="Layer 1"><g
       opacity="0"
       id="g2"
       clip-path="url(#clipPath3)"><path
         d="M 153.071,0 H 0 v 153.071 h 153.071 z"
         style="fill:#ffffff;fill-opacity:1;fill-rule:nonzero;stroke:none"
         transform="matrix(1.3333333,0,0,-1.3333333,0,204.09467)"
         clip-path="url(#clipPath1)"
         id="path2" /></g><path
       id="path4"
       d="M 0,0 V -26.324 H -8.22 V 0 h -9.613 V 6.839 H 9.613 L 9.613,0 Z"
       style="fill:#ffffff;fill-opacity:1;fill-rule:nonzero;stroke:none"
       transform="matrix(1.3333333,0,0,-1.3333333,57.468267,87.4044)" /><path
       id="path5"
       d="m 0,0 c -0.689,-1.639 -1.675,-3.044 -2.956,-4.215 -1.282,-1.171 -2.829,-2.085 -4.639,-2.741 -1.811,-0.655 -3.821,-0.983 -6.032,-0.983 -2.244,0 -4.262,0.328 -6.057,0.983 -1.795,0.656 -3.316,1.57 -4.566,2.741 -1.25,1.171 -2.211,2.576 -2.884,4.215 -0.673,1.64 -1.01,3.458 -1.01,5.457 v 20.656 h 8.172 v -20 c 0,-0.906 0.12,-1.765 0.361,-2.576 0.24,-0.813 0.608,-1.539 1.105,-2.179 0.496,-0.64 1.154,-1.147 1.971,-1.522 0.817,-0.375 1.802,-0.562 2.956,-0.562 1.154,0 2.139,0.187 2.956,0.562 0.817,0.375 1.482,0.882 1.995,1.522 0.512,0.64 0.881,1.366 1.105,2.179 0.224,0.811 0.337,1.67 0.337,2.576 v 20 H 1.033 V 5.457 C 1.033,3.458 0.689,1.64 0,0"
       style="fill:#ffffff;fill-opacity:1;fill-rule:nonzero;stroke:none"
       transform="matrix(1.3333333,0,0,-1.3333333,112.03467,113.1036)"
       clip-path="url(#clipPath6)" /><path
       id="path7"
       d="M 0,0 16.665,40.819 H 10.712 L -5.952,0 Z"
       style="fill:#ffffff;fill-opacity:1;fill-rule:nonzero;stroke:none"
       transform="matrix(1.3333333,0,0,-1.3333333,120.19387,129.30987)"
       clip-path="url(#clipPath8)" /><path
       id="path9"
       d="M 0,0 C 2.943,0 5.464,-1.806 6.516,-4.37 H -6.516 C -5.464,-1.806 -2.943,0 0,0 m 0,5.373 c -6.857,0 -12.415,-5.559 -12.415,-12.415 0,-6.857 5.558,-12.416 12.415,-12.416 4.4,0 8.896,1.926 11.323,5.395 l -5.631,2.296 C 4.193,-13.429 2.139,-14.085 0,-14.085 c -3.156,0 -5.827,2.076 -6.722,4.937 h 18.956 c 0.117,0.685 0.181,1.388 0.181,2.106 C 12.415,-0.186 6.857,5.373 0,5.373"
       style="fill:#ffffff;fill-opacity:1;fill-rule:nonzero;stroke:none"
       transform="matrix(1.3333333,0,0,-1.3333333,153.20453,97.741333)"
       clip-path="url(#clipPath10)" /></g></svg>
